<?xml version="1.0" encoding="UTF-8"?>
<svg width="32px" height="38px" viewBox="0 0 32 38" version="1.1" xmlns="http://www.w3.org/2000/svg" xmlns:xlink="http://www.w3.org/1999/xlink">
    <!-- Generator: Sketch 46.2 (44496) - http://www.bohemiancoding.com/sketch -->
    <title>guard</title>
    <desc>Created with Sketch.</desc>
    <defs>
        <path d="M4,39 L4,1 L20,4.73913043 L20,17.3391304 C20,32.8347826 4,39 4,39 Z" id="path-1"></path>
    </defs>
    <g id="Page-1" stroke="none" stroke-width="1" fill="none" fill-rule="evenodd">
        <g id="Desktop-HD" transform="translate(-144.000000, -756.000000)">
            <g id="guard" transform="translate(140.000000, 755.000000)">
                <rect id="bound" x="0" y="0" width="40" height="40"></rect>
                <path d="M20,39 C20,39 4,32.6782609 4,17.3391304 L4,4.73913043 L20,1 L36,4.73913043 L36,17.3391304 C36,32.8347826 20,39 20,39 Z" id="Shape" fill="#86DBA2"></path>
                <g id="Shape" transform="translate(12.000000, 20.000000) scale(-1, 1) translate(-12.000000, -20.000000) ">
                    <use fill="#B7E6A8" xlink:href="#path-1"></use>
                    <use fill="#ADECB5" xlink:href="#path-1"></use>
                </g>
                <polygon id="Check" fill="#443D4E" fill-rule="nonzero" points="14 17 13 18 20 25.5 29 13 28 12.5 20 20"></polygon>
            </g>
        </g>
    </g>
</svg>