<?xml version="1.0" encoding="UTF-8"?>
<svg width="168px" height="36px" viewBox="0 0 168 36" version="1.1" xmlns="http://www.w3.org/2000/svg" xmlns:xlink="http://www.w3.org/1999/xlink">
    <!-- Generator: Sketch 46.2 (44496) - http://www.bohemiancoding.com/sketch -->
    <title>qingcloudlogo</title>
    <desc>Created with Sketch.</desc>
    <defs></defs>
    <g id="Page-1" stroke="none" stroke-width="1" fill="none" fill-rule="evenodd">
        <g id="Desktop-HD" transform="translate(-140.000000, -32.000000)" fill-rule="nonzero">
            <g id="qingcloudlogo" transform="translate(140.000000, 32.000000)">
                <path d="M45.553309,20.4603846 C45.553309,21.6667752 44.0573847,23.0661883 42.7544828,23.7900226 C43.8643622,24.3690901 44.4916853,24.7068795 45.0707528,25.0446688 C45.5050534,25.285947 45.6015647,25.5272251 45.4567978,25.9615257 C45.3602865,26.2993151 44.8294747,27.0231494 44.4434297,27.0231494 C44.1538959,27.0231494 43.9608734,26.9266382 43.4783172,26.5888488 C42.7062272,26.1062926 41.065536,25.0446688 39.1835667,24.2725789 C37.5428755,23.5970001 35.4678836,21.811542 35.4678836,20.4121289 L35.4678836,11.3883273 C35.4678836,9.60286917 38.7492661,7.19008797 40.4864685,7.19008797 C42.2719266,7.19008797 45.553309,9.60286917 45.553309,11.3883273 L45.553309,20.4603846 L45.553309,20.4603846 Z M38.0254317,20.1225952 C38.0254317,21.0394521 39.7143785,22.2458427 40.4864685,22.2458427 C41.3550697,22.2458427 42.995761,20.9911964 42.995761,20.1225952 L42.995761,11.7261166 C42.995761,10.8092598 41.3550697,9.60286917 40.4864685,9.60286917 C39.6661229,9.60286917 38.0254317,10.8575154 38.0254317,11.7261166 L38.0254317,20.1225952 Z" id="Shape" fill="#FFFFFF"></path>
                <path d="M51.0544502,23.8382782 C51.0544502,24.127812 50.813172,24.4173457 50.4753827,24.4173457 L49.0759696,24.4173457 C48.7864358,24.4173457 48.4969021,24.1760676 48.4969021,23.8382782 L48.4969021,8.01043358 C48.4969021,7.72089984 48.7381802,7.43136609 49.0759696,7.43136609 L50.4753827,7.43136609 C50.813172,7.43136609 51.0544502,7.67264421 51.0544502,8.01043358 L51.0544502,23.8382782 Z" id="Shape" fill="#FFFFFF"></path>
                <path d="M56.7968694,12.9807628 L56.7968694,23.7900226 C56.7968694,24.127812 56.5555913,24.3690901 56.1695463,24.3690901 L54.8666445,24.3690901 C54.5771107,24.3690901 54.287577,24.127812 54.287577,23.7900226 L54.287577,8.01043358 C54.287577,7.72089984 54.5771107,7.43136609 54.8666445,7.43136609 L55.9282682,7.43136609 C56.3625688,7.43136609 56.5073357,7.62438859 56.7486138,8.01043358 L61.9602212,18.9162046 L61.9602212,8.01043358 C61.9602212,7.67264421 62.2014993,7.43136609 62.5392887,7.43136609 L63.8421905,7.43136609 C64.1799799,7.43136609 64.421258,7.67264421 64.421258,8.01043358 L64.421258,23.8382782 C64.421258,24.1760676 64.1799799,24.4173457 63.8421905,24.4173457 L62.7805668,24.4173457 C62.3945218,24.4173457 62.1532437,24.127812 61.9602212,23.8382782 L56.7968694,12.9807628 Z" id="Shape" fill="#FFFFFF"></path>
                <path d="M72.9142478,15.2487772 C72.9142478,14.9592434 73.2037816,14.6697097 73.4933153,14.6697097 L76.6299309,14.6697097 C76.9677202,14.6697097 77.4502765,15.1522659 77.4502765,15.4900553 L77.4502765,20.4603846 C77.4502765,22.197587 74.2171497,24.6103682 72.4316916,24.6103682 C70.6944891,24.6103682 67.3648511,22.1493314 67.3648511,20.4603846 L67.3648511,11.3883273 C67.3648511,9.60286917 70.6944891,7.19008797 72.4316916,7.19008797 C73.5415709,7.19008797 75.1822622,8.0586892 76.3886528,8.78252356 C76.6781865,8.97554606 76.8229534,9.31333543 76.6299309,9.6511248 L76.1956303,10.519726 C76.0508634,10.8092598 75.6165628,10.905771 75.2787734,10.7127485 C74.3619165,10.2301923 73.1072703,9.60286917 72.383436,9.60286917 C71.611346,9.60286917 69.8741435,10.8575154 69.8741435,11.7261166 L69.8741435,20.1225952 C69.8741435,20.9911964 71.5630904,22.2458427 72.383436,22.2458427 C73.155526,22.2458427 74.8444728,20.9429408 74.8444728,20.1225952 L74.8444728,16.8894684 L73.4450597,16.8894684 C73.155526,16.8894684 72.8659922,16.6481903 72.8659922,16.3104009 L72.8659922,15.2487772 L72.9142478,15.2487772 Z" id="Shape" fill="#FFFFFF"></path>
                <path d="M82.3723501,20.1225952 C82.3723501,21.0394521 84.1578082,22.2940983 84.833387,22.2940983 C85.5572213,22.2940983 86.618845,21.7150308 87.5357019,21.2324746 C87.8734913,21.0394521 88.3560475,21.1359633 88.5008144,21.4737527 L88.935115,22.3423539 C89.0798819,22.6801433 88.9833706,23.0179326 88.6938369,23.2109551 C87.4874463,23.9347895 86.0880332,24.6586239 84.833387,24.6586239 C83.1444401,24.6586239 79.8148021,22.3906095 79.8148021,20.5086402 L79.8148021,11.3883273 C79.8148021,9.55461355 83.1444401,7.19008797 84.8816426,7.19008797 C85.9432663,7.19008797 87.4391906,7.96217796 88.6455812,8.63775669 C88.935115,8.78252356 89.0798819,9.21682418 88.8868594,9.50635792 L88.5008144,10.3267035 C88.3560475,10.6162373 87.9217469,10.7610041 87.5839575,10.5679817 C86.6671007,10.0854254 85.5572213,9.55461355 84.833387,9.55461355 C84.1095526,9.55461355 82.3240945,10.8092598 82.3240945,11.7261166 L82.3240945,20.1225952 L82.3723501,20.1225952 Z" id="Shape" fill="#FFFFFF"></path>
                <path d="M91.0583624,23.3074664 L91.0583624,8.01043358 C91.0583624,7.72089984 91.3478962,7.43136609 91.6374299,7.43136609 L92.9885874,7.43136609 C93.3263768,7.43136609 93.6159105,7.67264421 93.6159105,8.01043358 L93.6159105,22.1493314 L98.4414729,22.1493314 C98.7792623,22.1493314 99.0205404,22.3906095 99.0205404,22.7283989 L99.0205404,23.8382782 C99.0205404,24.127812 98.7792623,24.4173457 98.4414729,24.4173457 L92.0717305,24.4173457 C91.7339412,24.3690901 91.0583624,23.6452557 91.0583624,23.3074664 Z" id="Shape" fill="#FFFFFF"></path>
                <path d="M110.264101,20.4603846 C110.264101,22.2458427 106.982718,24.6103682 105.19726,24.6103682 C103.460058,24.6103682 100.178675,22.2458427 100.178675,20.4603846 L100.178675,11.3883273 C100.178675,9.60286917 103.460058,7.19008797 105.19726,7.19008797 C106.982718,7.19008797 110.264101,9.60286917 110.264101,11.3883273 L110.264101,20.4603846 Z M102.687968,20.1225952 C102.687968,21.0394521 104.376915,22.2458427 105.149005,22.2458427 C106.017606,22.2458427 107.658297,20.9911964 107.658297,20.1225952 L107.658297,11.7261166 C107.658297,10.8092598 106.017606,9.60286917 105.149005,9.60286917 C104.328659,9.60286917 102.687968,10.8575154 102.687968,11.7261166 L102.687968,20.1225952 L102.687968,20.1225952 Z" id="Shape" fill="#FFFFFF"></path>
                <path d="M118.081512,24.6103682 C116.392565,24.6103682 113.062927,22.3423539 113.062927,20.4603846 L113.062927,8.01043358 C113.062927,7.72089984 113.352461,7.43136609 113.641994,7.43136609 L114.993152,7.43136609 C115.330941,7.43136609 115.572219,7.67264421 115.572219,8.01043358 L115.572219,20.1225952 C115.572219,21.0394521 117.261166,22.2458427 118.033256,22.2458427 C118.853602,22.2458427 120.494293,20.9911964 120.494293,20.1225952 L120.494293,8.01043358 C120.494293,7.72089984 120.735571,7.43136609 121.025105,7.43136609 L122.424518,7.43136609 C122.714052,7.43136609 123.003586,7.67264421 123.003586,8.01043358 L123.003586,20.4603846 C123.148352,22.2458427 119.818714,24.6103682 118.081512,24.6103682 Z" id="Shape" fill="#FFFFFF"></path>
                <path d="M136.129115,20.4121289 C136.129115,21.9563089 133.233778,24.4173457 131.496575,24.4173457 L127.491359,24.4173457 C126.767524,24.4173457 126.236712,23.9830451 126.236712,23.4522333 L126.236712,8.4447342 C126.236712,7.91392233 126.81578,7.43136609 127.491359,7.43136609 L131.44832,7.43136609 C133.233778,7.43136609 136.129115,9.69938042 136.129115,11.4365829 L136.129115,20.4121289 L136.129115,20.4121289 Z M133.571567,11.7743723 C133.571567,10.905771 132.027387,9.6511248 131.11053,9.6511248 L128.79426,9.6511248 L128.79426,22.1493314 L131.158786,22.1493314 C132.075643,22.1493314 133.571567,20.8464296 133.571567,20.026084 L133.571567,11.7743723 L133.571567,11.7743723 Z" id="Shape" fill="#FFFFFF"></path>
                <path d="M155.527876,9.89240292 L167.06097,9.89240292 C167.205737,9.89240292 167.350504,9.74763604 167.350504,9.60286917 L167.350504,8.29996732 C167.350504,8.15520045 167.205737,8.01043358 167.06097,8.01043358 L155.527876,8.01043358 C155.383109,8.01043358 155.238342,8.15520045 155.238342,8.29996732 L155.238342,9.60286917 C155.238342,9.74763604 155.383109,9.89240292 155.527876,9.89240292 Z" id="Shape" fill="#FFFFFF"></path>
                <path d="M167.253993,13.222041 L155.334854,13.222041 C155.190087,13.222041 155.04532,13.3668078 155.04532,13.5115747 L155.04532,14.8144766 C155.04532,14.9592434 155.190087,15.1040103 155.334854,15.1040103 L156.975545,15.1040103 L155.672643,22.4871208 C155.576132,22.8731658 155.865665,23.3074664 156.25171,23.4039776 L161.125528,24.6103682 C161.173784,24.6103682 161.270295,24.6103682 161.318551,24.6103682 C161.366807,24.6103682 161.463318,24.6103682 161.511573,24.6103682 L166.385391,23.4039776 C166.723181,23.3074664 166.964459,23.0179326 166.964459,22.6318876 L166.964459,22.1493314 L166.964459,19.9295727 L166.964459,17.9993477 C166.964459,17.8545809 166.819692,17.709814 166.674925,17.709814 L165.275512,17.709814 C165.130745,17.709814 164.985978,17.8545809 164.985978,17.9993477 L164.985978,21.9080533 L161.65634,22.7283989 C161.559829,22.7283989 161.463318,22.7766545 161.366807,22.7766545 C161.270295,22.7766545 161.173784,22.7766545 161.077273,22.7283989 L157.892402,21.9563089 L159.098792,15.1522659 L167.350504,15.1522659 C167.495271,15.1522659 167.640038,15.0074991 167.640038,14.8627322 L167.640038,13.5598303 C167.543526,13.3668078 167.39876,13.222041 167.253993,13.222041 Z" id="Shape" fill="#FFFFFF"></path>
                <path d="M152.632539,13.4150635 L147.32442,13.4150635 L147.32442,12.3534397 L151.763937,12.3534397 C151.908704,12.3534397 152.053471,12.2086729 152.053471,12.063906 L152.053471,11.0987935 C152.053471,10.9540266 151.908704,10.8092598 151.763937,10.8092598 L147.32442,10.8092598 L147.32442,9.74763604 L152.005216,9.74763604 C152.149982,9.74763604 152.294749,9.60286917 152.294749,9.4581023 L152.294749,8.49298982 C152.294749,8.34822295 152.149982,8.20345608 152.005216,8.20345608 L147.32442,8.20345608 L147.32442,7.72089984 C147.32442,7.57613296 147.179653,7.43136609 147.034886,7.43136609 L145.635473,7.43136609 C145.490706,7.43136609 145.345939,7.57613296 145.345939,7.72089984 L145.345939,8.20345608 L140.665144,8.20345608 C140.520377,8.20345608 140.37561,8.34822295 140.37561,8.49298982 L140.37561,9.4581023 C140.37561,9.60286917 140.520377,9.74763604 140.665144,9.74763604 L145.345939,9.74763604 L145.345939,10.8092598 L140.906422,10.8092598 C140.761655,10.8092598 140.616888,10.9540266 140.616888,11.0987935 L140.616888,12.063906 C140.616888,12.2086729 140.761655,12.3534397 140.906422,12.3534397 L145.345939,12.3534397 L145.345939,13.4150635 L140.037821,13.4150635 C139.893054,13.4150635 139.748287,13.5598303 139.748287,13.7045972 L139.748287,14.6697097 C139.748287,14.8144766 139.893054,14.9592434 140.037821,14.9592434 L152.680794,14.9592434 C152.825561,14.9592434 152.970328,14.8144766 152.970328,14.6697097 L152.970328,13.7045972 C152.922072,13.5598303 152.777306,13.4150635 152.632539,13.4150635 Z" id="Shape" fill="#FFFFFF"></path>
                <path d="M151.233126,16.0691228 L146.407563,15.7313334 C146.407563,15.7313334 146.359308,15.7313334 146.359308,15.7313334 C146.311052,15.7313334 146.311052,15.7313334 141.437234,16.0691228 C141.051189,16.1173784 140.7134,16.4551678 140.7134,16.8412128 L140.7134,17.5650471 L140.7134,23.741767 L140.7134,24.0313007 C140.7134,24.1760676 140.858166,24.3208345 141.002933,24.3208345 L142.305835,24.3208345 C142.450602,24.3208345 142.595369,24.1760676 142.595369,24.0313007 L142.595369,22.4388651 L150.026735,22.4388651 L150.026735,24.0313007 C150.026735,24.1760676 150.171502,24.3208345 150.316269,24.3208345 L151.619171,24.3208345 C151.763937,24.3208345 151.908704,24.1760676 151.908704,24.0313007 L151.908704,23.4522333 L151.908704,17.6133028 L151.908704,16.8894684 C151.95696,16.4551678 151.619171,16.1173784 151.233126,16.0691228 Z M150.026735,17.5650471 L150.026735,17.5650471 L150.026735,17.9028365 L150.026735,18.3853927 L142.595369,18.3853927 L142.595369,17.9028365 L142.595369,17.5650471 L142.595369,17.5167915 C143.898271,17.4202803 145.973263,17.2755134 146.311052,17.2272578 L150.026735,17.5650471 Z M142.595369,20.9429408 L142.595369,19.9778283 L150.026735,19.9778283 L150.026735,20.9429408 L142.595369,20.9429408 Z" id="Shape" fill="#FFFFFF"></path>
                <path d="M21.3772414,20.7499183 L27.0714051,24.0313007 L21.3772414,27.3609388 L21.3772414,20.7499183 Z M21.811542,19.9778283 L27.5057057,16.6964459 L27.5057057,23.2592108 L21.811542,19.9778283 Z M21.3772414,12.6429735 L27.0714051,15.9243559 L21.3772414,19.2057383 L21.3772414,12.6429735 Z M0.675578736,7.76915546 L6.36974237,4.48777303 L6.36974237,11.0505379 L0.675578736,7.76915546 Z M0.24127812,8.54124544 L5.93544175,11.8708835 L0.24127812,15.1522659 L0.24127812,8.54124544 Z M0.24127812,16.6964459 L5.93544175,19.9778283 L0.24127812,23.2592108 L0.24127812,16.6964459 Z M21.3772414,4.48777303 L27.0714051,7.76915546 L21.3772414,11.0505379 L21.3772414,4.48777303 Z M21.811542,11.8708835 L27.5057057,8.54124544 L27.5057057,15.1522659 L21.811542,11.8708835 Z M14.7662209,7.76915546 L20.4603846,4.48777303 L20.4603846,11.0505379 L14.7662209,7.76915546 Z M14.7662209,24.0313007 L20.4603846,20.7499183 L20.4603846,27.3609388 L14.7662209,24.0313007 Z M7.72089984,3.71568305 L13.4150635,0.434300616 L13.4150635,6.99706548 L7.72089984,3.71568305 Z M14.3319203,0.434300616 L20.026084,3.71568305 L14.3319203,6.99706548 L14.3319203,0.434300616 Z M14.3319203,24.8516463 L20.026084,28.1330288 L14.3319203,31.4144112 L14.3319203,24.8516463 Z M14.7662209,32.1865012 L20.4603846,28.9051188 L20.4603846,35.4678836 L14.7662209,32.1865012 Z M7.28659922,20.7499183 L12.9807628,24.0313007 L7.28659922,27.3609388 L7.28659922,20.7499183 Z M7.28659922,4.48777303 L12.9807628,7.76915546 L7.28659922,11.0505379 L7.28659922,4.48777303 Z M0.675578736,15.9243559 L6.36974237,12.6429735 L6.36974237,19.2057383 L0.675578736,15.9243559 Z M0.675578736,24.0313007 L6.36974237,20.7499183 L6.36974237,27.3609388 L0.675578736,24.0313007 Z M7.72089984,28.1330288 L13.4150635,24.8516463 L13.4150635,31.4144112 L7.72089984,28.1330288 Z" id="Combined-Shape" fill="#57B382"></path>
            </g>
        </g>
    </g>
</svg>