<?xml version="1.0" encoding="UTF-8"?>
<svg width="111px" height="83px" viewBox="0 0 111 83" version="1.1" xmlns="http://www.w3.org/2000/svg" xmlns:xlink="http://www.w3.org/1999/xlink">
    <!-- Generator: Sketch 46.2 (44496) - http://www.bohemiancoding.com/sketch -->
    <title>qingcloudlogo2</title>
    <desc>Created with Sketch.</desc>
    <defs></defs>
    <g id="Page-1" stroke="none" stroke-width="1" fill="none" fill-rule="evenodd">
        <g id="Desktop-HD" transform="translate(-1186.000000, -4869.000000)" fill-rule="nonzero">
            <g id="qingcloudlogo2" transform="translate(1186.000000, 4869.000000)">
                <path d="M67.3529617,33.0272602 L76.5752333,38.3300664 L67.3529617,43.6905117 L67.3529617,33.0272602 Z M68.0446321,31.7591978 L77.3245429,26.3987525 L77.3245429,37.062004 L68.0446321,31.7591978 Z M67.3529617,19.7702448 L76.5752333,25.1306901 L67.3529617,30.4911355 L67.3529617,19.7702448 Z M33.7493096,11.9313139 L42.9715812,6.57086852 L42.9715812,17.2917593 L33.7493096,11.9313139 Z M33,13.1993762 L42.2799108,18.5598216 L33,23.8626278 L33,13.1993762 Z M33,26.3987525 L42.2799108,31.7591978 L33,37.062004 L33,26.3987525 Z M67.3529617,6.57086852 L76.5752333,11.9313139 L67.3529617,17.2917593 L67.3529617,6.57086852 Z M68.0446321,18.5598216 L77.3245429,13.1993762 L77.3245429,23.8626278 L68.0446321,18.5598216 Z M56.632071,11.9313139 L65.8543426,6.57086852 L65.8543426,17.2917593 L56.632071,11.9313139 Z M56.632071,38.3300664 L65.8543426,33.0272602 L65.8543426,43.6905117 L56.632071,38.3300664 Z M45.1618707,5.30280617 L54.4417815,0 L54.4417815,10.6632515 L45.1618707,5.30280617 Z M55.8827614,0 L65.1626722,5.30280617 L55.8827614,10.6632515 L55.8827614,0 Z M55.8827614,39.5981287 L65.1626722,44.9585741 L55.8827614,50.3190195 L55.8827614,39.5981287 Z M56.632071,51.5870818 L65.8543426,46.2266364 L65.8543426,56.889888 L56.632071,51.5870818 Z M44.4702003,33.0272602 L53.6924719,38.3300664 L44.4702003,43.6905117 L44.4702003,33.0272602 Z M44.4702003,6.57086852 L53.6924719,11.9313139 L44.4702003,17.2917593 L44.4702003,6.57086852 Z M33.7493096,25.1306901 L42.9715812,19.827884 L42.9715812,30.4911355 L33.7493096,25.1306901 Z M33.7493096,38.3300664 L42.9715812,33.0272602 L42.9715812,43.6905117 L33.7493096,38.3300664 Z M45.1618707,44.9585741 L54.4417815,39.5981287 L54.4417815,50.3190195 L45.1618707,44.9585741 Z" id="Combined-Shape" fill="#57B382"></path>
                <path d="M8.47296204,77.0667259 C8.47296204,78.0465923 7.20489969,79.2570154 6.10975494,79.8334074 C7.0319821,80.294521 7.55073488,80.582717 8.01184846,80.870913 C8.35768364,81.1014698 8.47296204,81.2743873 8.35768364,81.6202225 C8.30004445,81.9084185 7.83893087,82.5424497 7.49309568,82.5424497 C7.26253889,82.5424497 7.0896213,82.4271713 6.68614691,82.1966145 C6.05211574,81.7931401 4.668775,80.9285522 3.11251667,80.294521 C1.72917593,79.718129 0,78.2771491 0,77.0667259 L0,69.515991 C0,68.0173719 2.76668148,66.0576392 4.20766142,66.0576392 C5.70628056,66.0576392 8.41532284,68.0750111 8.41532284,69.515991 L8.41532284,77.0667259 L8.47296204,77.0667259 Z M2.13265031,76.7785299 C2.13265031,77.5278395 3.51599105,78.5653451 4.20766142,78.5653451 C4.89933179,78.5653451 6.34031173,77.5278395 6.34031173,76.7785299 L6.34031173,69.804187 C6.34031173,69.0548775 4.95697099,68.0173719 4.20766142,68.0173719 C3.51599105,68.0173719 2.13265031,69.0548775 2.13265031,69.804187 L2.13265031,76.7785299 Z M13.0264586,79.8910466 C13.0264586,80.1216034 12.8535411,80.3521602 12.5653451,80.3521602 L11.4125611,80.3521602 C11.1820043,80.3521602 10.9514475,80.1216034 10.9514475,79.8910466 L10.9514475,66.6916704 C10.9514475,66.4611136 11.1820043,66.2305568 11.4125611,66.2305568 L12.5653451,66.2305568 C12.8535411,66.2305568 13.0264586,66.4611136 13.0264586,66.6916704 L13.0264586,79.8910466 Z M17.810512,70.8993318 L17.810512,79.9486858 C17.810512,80.2368818 17.5799552,80.4097994 17.2917593,80.4097994 L16.1966145,80.4097994 C15.9660577,80.4097994 15.6778617,80.2368818 15.6778617,79.9486858 L15.6778617,66.7493096 C15.6778617,66.5187528 15.9084185,66.288196 16.1966145,66.288196 L17.1188417,66.288196 C17.4646769,66.288196 17.6375944,66.4611136 17.810512,66.7493096 L22.1334519,75.8563028 L22.1334519,66.7493096 C22.1334519,66.4611136 22.3063694,66.288196 22.5945654,66.288196 L23.6897102,66.288196 C23.9779062,66.288196 24.208463,66.4611136 24.208463,66.7493096 L24.208463,79.9486858 C24.208463,80.2368818 23.9779062,80.4097994 23.6897102,80.4097994 L22.8251222,80.4097994 C22.479287,80.4097994 22.3063694,80.1792426 22.1334519,79.9486858 L17.810512,70.8993318 Z M31.2980843,72.7437861 C31.2980843,72.5132293 31.5286411,72.2826725 31.816837,72.2826725 L34.4682401,72.2826725 C34.7564361,72.2826725 35.1599105,72.6861469 35.1599105,72.9743429 L35.1599105,77.1243651 C35.1599105,78.5653451 32.4508682,80.582717 30.9522491,80.582717 C29.5112691,80.582717 26.7445877,78.5653451 26.7445877,77.1243651 L26.7445877,69.5736302 C26.7445877,68.0750111 29.5689083,66.1152784 30.9522491,66.1152784 C31.8744762,66.1152784 33.257817,66.8069488 34.2376833,67.4409799 C34.5258793,67.6138975 34.5835185,67.9020935 34.4682401,68.1326503 L34.1224049,68.8243207 C34.0071265,69.0548775 33.6612914,69.1701559 33.3730954,68.9972383 C32.6237858,68.5937639 31.5286411,68.0750111 30.9522491,68.0750111 C30.3182179,68.0750111 28.877238,69.1125167 28.877238,69.8618262 L28.877238,76.8938083 C28.877238,77.6431179 30.3182179,78.6806235 30.9522491,78.6806235 C31.5862803,78.6806235 33.0272602,77.5854787 33.0272602,76.8938083 L33.0272602,74.2424052 L31.816837,74.2424052 C31.5862803,74.2424052 31.2980843,74.0118485 31.2980843,73.7812917 L31.2980843,72.7437861 L31.2980843,72.7437861 Z M39.1946543,76.7785299 C39.1946543,77.5278395 40.6932735,78.5653451 41.2696654,78.5653451 C41.8460574,78.5653451 42.7682846,78.1042315 43.5175941,77.6431179 C43.8057901,77.4702003 44.2092645,77.5854787 44.3245429,77.8736747 L44.6703781,78.5653451 C44.7856565,78.8535411 44.7280173,79.141737 44.4974605,79.2570154 C43.5175941,79.8334074 42.307171,80.4674386 41.2696654,80.4674386 C39.8863247,80.4674386 37.062004,78.5653451 37.062004,77.0090867 L37.062004,69.4583519 C37.062004,67.9597327 39.8286855,66 41.2696654,66 C42.1918926,66 43.4023157,66.6340312 44.4398213,67.2104231 C44.6703781,67.3257015 44.7856565,67.6715367 44.6127389,67.9597327 L44.2669037,68.6514031 C44.1516253,68.8819599 43.8057901,68.9972383 43.5175941,68.8243207 C42.7682846,68.4208463 41.8460574,67.9597327 41.2120262,67.9597327 C40.6356343,67.9597327 39.1370151,68.9972383 39.1370151,69.7465478 L39.1370151,76.7785299 L39.1946543,76.7785299 Z M46.4571932,79.4875722 L46.4571932,66.6916704 C46.4571932,66.4611136 46.68775,66.2305568 46.975946,66.2305568 L48.0710907,66.2305568 C48.3592867,66.2305568 48.5898435,66.4611136 48.5898435,66.6916704 L48.5898435,78.5077059 L52.6245874,78.5077059 C52.9127833,78.5077059 53.1433401,78.7382627 53.1433401,78.9688194 L53.1433401,79.8910466 C53.1433401,80.1216034 52.9127833,80.3521602 52.6245874,80.3521602 L47.264142,80.3521602 C46.975946,80.3521602 46.4571932,79.7757682 46.4571932,79.4875722 Z M62.4232509,77.0667259 C62.4232509,78.5653451 59.6565695,80.5250778 58.2155895,80.5250778 C56.7746096,80.5250778 54.0079281,78.5653451 54.0079281,77.0667259 L54.0079281,69.515991 C54.0079281,68.0173719 56.7746096,66.0576392 58.2155895,66.0576392 C59.7142087,66.0576392 62.4232509,68.0750111 62.4232509,69.515991 L62.4232509,77.0667259 Z M56.1405784,76.7785299 C56.1405784,77.5278395 57.5239191,78.5653451 58.2155895,78.5653451 C58.9072599,78.5653451 60.3482398,77.5278395 60.3482398,76.7785299 L60.3482398,69.804187 C60.3482398,69.0548775 58.9648991,68.0173719 58.2155895,68.0173719 C57.5239191,68.0173719 56.1405784,69.0548775 56.1405784,69.804187 L56.1405784,76.7785299 Z M68.9941195,80.582717 C67.5531395,80.582717 64.786458,78.6806235 64.786458,77.1243651 L64.786458,66.7493096 C64.786458,66.5187528 65.0170148,66.288196 65.2475716,66.288196 L66.4003556,66.288196 C66.6885516,66.288196 66.9191083,66.5187528 66.9191083,66.7493096 L66.9191083,76.8938083 C66.9191083,77.6431179 68.3024491,78.6806235 68.9941195,78.6806235 C69.6857898,78.6806235 71.0691306,77.6431179 71.0691306,76.8938083 L71.0691306,66.7493096 C71.0691306,66.5187528 71.2420482,66.288196 71.5302441,66.288196 L72.6830281,66.288196 C72.9135849,66.288196 73.2017809,66.5187528 73.2017809,66.7493096 L73.2017809,77.1243651 C73.1441417,78.6229843 70.3774602,80.582717 68.9941195,80.582717 Z M83.9803108,77.0667259 C83.9803108,78.3347883 81.5594645,80.4097994 80.1184846,80.4097994 L76.7754111,80.4097994 C76.1990191,80.4097994 75.7379056,80.0639642 75.7379056,79.6028506 L75.7379056,67.0951448 C75.7379056,66.6340312 76.1990191,66.2305568 76.7754111,66.2305568 L80.0608454,66.2305568 C81.5594645,66.2305568 83.9803108,68.1326503 83.9803108,69.5736302 L83.9803108,77.0667259 Z M81.8476605,69.8618262 C81.8476605,69.1701559 80.5795982,68.0750111 79.7726494,68.0750111 L77.8129167,68.0750111 L77.8129167,78.5077059 L79.7726494,78.5077059 C80.521959,78.5077059 81.7900213,77.4125611 81.7900213,76.7208907 L81.7900213,69.8618262 L81.8476605,69.8618262 Z M100.234565,68.3055679 C100.061647,68.3055679 99.9463685,68.1902895 100.004008,68.0750111 L100.004008,66.9798664 C100.004008,66.864588 100.119286,66.7493096 100.234565,66.7493096 L109.860311,66.7493096 C109.975589,66.7493096 110.090867,66.864588 110.090867,66.9798664 L110.090867,68.0750111 C110.090867,68.1902895 109.975589,68.3055679 109.860311,68.3055679 L100.234565,68.3055679 Z M109.975589,71.0722494 C110.148506,71.0722494 110.263785,71.1875278 110.263785,71.3604454 L110.263785,72.4555901 C110.263785,72.5708685 110.148506,72.6861469 110.033228,72.6861469 L103.174164,72.6861469 L102.136658,78.3924275 L104.788061,79.0264586 C104.8457,79.0840978 104.960979,79.0840978 105.018618,79.0840978 C105.076257,79.0840978 105.191536,79.0264586 105.249175,79.0264586 L108.131135,78.2771491 L108.131135,75.049354 C108.131135,74.9340756 108.246413,74.8187972 108.361691,74.8187972 L109.514475,74.8187972 C109.629754,74.8187972 109.745032,74.9340756 109.745032,75.049354 L109.745032,76.6632515 L109.745032,78.5077059 L109.745032,78.9111802 C109.745032,79.1993762 109.514475,79.4875722 109.226279,79.5452114 L105.191536,80.5250778 C105.133896,80.5250778 105.076257,80.5250778 105.018618,80.5250778 C104.960979,80.5250778 104.90334,80.5250778 104.8457,80.5250778 L100.810956,79.5452114 C100.522761,79.4875722 100.292204,79.141737 100.349843,78.7959019 L101.444988,72.6285077 L100.061647,72.6285077 C99.9463685,72.6285077 99.8310901,72.5132293 99.8310901,72.3979509 L99.8310901,71.3028062 C99.8310901,71.1875278 99.9463685,71.0722494 100.061647,71.0722494 L109.975589,71.0722494 Z M97.8137182,71.1875278 C97.9289966,71.1875278 98.044275,71.3028062 98.1019142,71.4180846 L98.1019142,72.2250333 C98.1019142,72.3403117 97.9866358,72.4555901 97.8713574,72.4555901 L87.3233843,72.4555901 C87.2081059,72.4555901 87.0928275,72.3403117 87.0928275,72.2250333 L87.0928275,71.4180846 C87.0928275,71.3028062 87.2081059,71.1875278 87.3233843,71.1875278 L91.7616025,71.1875278 L91.7616025,70.3229398 L88.0726938,70.3229398 C87.9574154,70.3229398 87.8421371,70.2076614 87.8421371,70.092383 L87.8421371,69.2854343 C87.8421371,69.1701559 87.9574154,69.0548775 88.0726938,69.0548775 L91.7616025,69.0548775 L91.7616025,68.1902895 L87.8421371,68.1902895 C87.7268587,68.1902895 87.6115803,68.0750111 87.6115803,67.9597327 L87.6115803,67.152784 C87.6115803,67.0375056 87.7268587,66.9222272 87.8421371,66.9222272 L91.7616025,66.9222272 L91.7616025,66.5187528 C91.7616025,66.4034744 91.8768809,66.288196 91.9921593,66.288196 L93.1449432,66.288196 C93.2602216,66.288196 93.3755,66.4034744 93.3755,66.5187528 L93.3755,66.9222272 L97.2949654,66.9222272 C97.4102438,66.9222272 97.5255222,67.0375056 97.5255222,67.152784 L97.5255222,67.9597327 C97.5255222,68.0750111 97.4102438,68.1902895 97.2949654,68.1902895 L93.3755,68.1902895 L93.3755,69.0548775 L97.0644087,69.0548775 C97.1796871,69.0548775 97.2949654,69.1701559 97.2949654,69.2854343 L97.2949654,70.092383 C97.2949654,70.2076614 97.1796871,70.3229398 97.0644087,70.3229398 L93.3755,70.3229398 L93.3755,71.1875278 L97.8137182,71.1875278 Z M96.6032951,73.4354565 C96.9491303,73.4930957 97.2373263,73.7812917 97.1220479,74.0694877 L97.1220479,74.7035188 L97.1220479,79.6604898 L97.1220479,80.1216034 C97.1220479,80.2368818 97.0067695,80.3521602 96.8914911,80.3521602 L95.7963463,80.3521602 C95.6810679,80.3521602 95.5657895,80.2368818 95.5657895,80.1216034 L95.5657895,78.7959019 L89.3407562,78.7959019 L89.3407562,80.1216034 C89.3407562,80.2368818 89.2254778,80.3521602 89.1101994,80.3521602 L88.0150546,80.3521602 C87.8997762,80.3521602 87.7844979,80.2368818 87.7844979,80.1216034 L87.7844979,79.8910466 L87.7844979,74.7035188 L87.7844979,74.0694877 C87.7844979,73.7236525 88.0726938,73.4354565 88.418529,73.4354565 C92.5109121,73.1472605 92.5109121,73.1472605 92.5109121,73.1472605 C92.5109121,73.1472605 92.5685512,73.1472605 92.5685512,73.1472605 L96.6032951,73.4354565 Z M95.6234287,74.7035188 L92.5109121,74.472962 C92.2227161,74.472962 90.4935401,74.6458796 89.3983954,74.7035188 L89.3983954,74.9917148 L89.3983954,75.3951892 L95.6234287,75.3951892 L95.6234287,74.9917148 L95.6234287,74.7035188 Z M89.3983954,77.4702003 L95.6234287,77.4702003 L95.6234287,76.6632515 L89.3983954,76.6632515 L89.3983954,77.4702003 Z" id="Combined-Shape" fill="#FFFFFF"></path>
            </g>
        </g>
    </g>
</svg>