<svg xmlns="http://www.w3.org/2000/svg" xmlns:xlink="http://www.w3.org/1999/xlink" width="384" height="423" viewBox="0 0 384 423">
  <defs>
    <filter id="ssl-certificate-a" width="100%" height="100%" x="0%" y="0%" filterUnits="objectBoundingBox">
      <feGaussianBlur in="SourceGraphic"/>
    </filter>
    <filter id="ssl-certificate-b" width="124.1%" height="124%" x="-12%" y="-12%" filterUnits="objectBoundingBox">
      <feGaussianBlur in="SourceGraphic" stdDeviation="6.4657423 -12.3910644"/>
    </filter>
    <rect id="ssl-certificate-c" width="233" height="34" y="126" rx="1"/>
    <rect id="ssl-certificate-d" width="192" height="144" rx="2"/>
    <path id="ssl-certificate-e" d="M9.29320969,17.519563 C9.29320969,7.84377551 17.1295433,0 26.7961507,0 C36.4627581,0 44.2990917,7.84377551 44.2990917,17.519563 L44.2990917,30.6592352 L35.5476212,30.6592352 L35.5476212,17.519563 C35.5476212,12.6816692 31.6294544,8.75978148 26.7961507,8.75978148 C21.962847,8.75978148 18.0446802,12.6816692 18.0446802,17.519563 L18.0446802,35.0391259 L9.29320969,35.0391259 L9.29320969,17.519563 Z"/>
  </defs>
  <g fill="none" fill-rule="evenodd" transform="translate(9 37)">
    <polygon fill="#FFF" points="306.939 39.989 359 209.989 237.561 340 64.061 300.011 12 130.011 133.439 0" filter="url(#ssl-certificate-a)" opacity=".105" style="mix-blend-mode:overlay"/>
    <polygon fill="#FFF" points="276.506 15.058 357 178.248 246.805 350 94.51 311.903 9 148.171 126.71 0" filter="url(#ssl-certificate-b)" opacity=".06" style="mix-blend-mode:overlay"/>
    <use fill="#FFF" xlink:href="#ssl-certificate-c"/>
    <rect width="236" height="37" x="-1.5" y="124.5" stroke="#FFF" stroke-opacity=".188" stroke-width="3" rx="1"/>
    <path fill="#3C3843" d="M14.5033256,139.981557 C15.1674176,139.180324 16.0018511,138.779713 17.0066512,138.779713 C19.0393502,138.779713 20.070121,139.96703 20.0989946,142.341701 L20.0989946,148.377049 L17.595669,148.377049 L17.595669,142.411373 C17.595669,141.871411 17.4801765,141.472252 17.2491879,141.213883 C17.0181994,140.955514 16.6341868,140.826332 16.0971384,140.826332 C15.3637499,140.826332 14.8324842,141.110824 14.5033256,141.679816 L14.5033256,148.377049 L12,148.377049 L12,135 L14.5033256,135 L14.5033256,139.981557 Z M24.9843774,136.637295 L24.9843774,138.953893 L26.5868523,138.953893 L26.5868523,140.800205 L24.9843774,140.800205 L24.9843774,145.503074 C24.9843774,145.851436 25.0507856,146.101092 25.183604,146.252049 C25.3164224,146.403006 25.570506,146.478484 25.9458623,146.478484 C26.2230486,146.478484 26.4684702,146.458163 26.6821346,146.41752 L26.6821346,148.324795 C26.191284,148.475752 25.6860041,148.55123 25.16628,148.55123 C23.4107672,148.55123 22.5157001,147.660016 22.4810518,145.877561 L22.4810518,140.800205 L21.1124517,140.800205 L21.1124517,138.953893 L22.4810518,138.953893 L22.4810518,136.637295 L24.9843774,136.637295 Z M30.9784996,136.637295 L30.9784996,138.953893 L32.5809745,138.953893 L32.5809745,140.800205 L30.9784996,140.800205 L30.9784996,145.503074 C30.9784996,145.851436 31.0449078,146.101092 31.1777262,146.252049 C31.3105446,146.403006 31.5646282,146.478484 31.9399845,146.478484 C32.2171708,146.478484 32.4625924,146.458163 32.6762568,146.41752 L32.6762568,148.324795 C32.1854062,148.475752 31.6801263,148.55123 31.1604022,148.55123 C29.4048894,148.55123 28.5098223,147.660016 28.475174,145.877561 L28.475174,140.800205 L27.1065739,140.800205 L27.1065739,138.953893 L28.475174,138.953893 L28.475174,136.637295 L30.9784996,136.637295 Z M42.4123743,143.752561 C42.4123743,145.204071 42.0846643,146.366714 41.4292343,147.240523 C40.7738044,148.114332 39.8888429,148.55123 38.7743233,148.55123 C37.8272703,148.55123 37.0621323,148.22029 36.4788863,147.558402 L36.4788863,152 L33.9755607,152 L33.9755607,138.953893 L36.2969838,138.953893 L36.383604,139.877049 C36.9899489,139.145488 37.7810727,138.779713 38.7569992,138.779713 C39.9119418,138.779713 40.8098963,139.209354 41.4508894,140.068648 C42.0918826,140.927941 42.4123743,142.112356 42.4123743,143.621926 L42.4123743,143.752561 Z M39.9090487,143.569672 C39.9090487,142.69296 39.7545775,142.016567 39.4456303,141.540471 C39.1366832,141.064376 38.687706,140.826332 38.0986852,140.826332 C37.3133243,140.826332 36.7733967,141.128242 36.4788863,141.73207 L36.4788863,145.590164 C36.7849461,146.21141 37.3306483,146.522029 38.1160093,146.522029 C39.3113749,146.522029 39.9090487,145.53792 39.9090487,143.569672 Z M49.0388244,145.773053 C49.0388244,145.465333 48.8872405,145.222935 48.5840681,145.04585 C48.2808956,144.868766 47.7943833,144.710554 47.1245166,144.571209 C44.8954774,144.10092 43.7809745,143.148744 43.7809745,141.714652 C43.7809745,140.878582 44.1260084,140.180416 44.8160866,139.620133 C45.5061648,139.05985 46.4084502,138.779713 47.5229698,138.779713 C48.7125607,138.779713 49.6639304,139.061302 50.3771075,139.624488 C51.0902846,140.187674 51.4468677,140.919224 51.4468677,141.81916 L48.9435422,141.81916 C48.9435422,141.459185 48.8280496,141.16163 48.5970611,140.926486 C48.3660726,140.691341 48.0051584,140.57377 47.5143078,140.57377 C47.0927538,140.57377 46.7664874,140.669569 46.5354988,140.861168 C46.3045103,141.052767 46.1890178,141.296617 46.1890178,141.592725 C46.1890178,141.871415 46.3203905,142.096396 46.58314,142.267674 C46.8458894,142.438952 47.289092,142.587004 47.912761,142.711834 C48.53643,142.836664 49.061921,142.977458 49.4892498,143.134221 C50.8116591,143.621929 51.4728538,144.466695 51.4728538,145.668545 C51.4728538,146.527839 51.106165,147.223102 50.3727765,147.754355 C49.6393879,148.285607 48.6923492,148.55123 47.5316319,148.55123 C46.7462709,148.55123 46.0489847,148.410435 45.4397525,148.128842 C44.8305203,147.847249 44.3526699,147.461153 44.0061872,146.970543 C43.6597044,146.479933 43.4864656,145.950139 43.4864656,145.381148 L45.8598608,145.381148 C45.8829596,145.828213 46.0475365,146.170764 46.3535963,146.408811 C46.6596561,146.646859 47.0696546,146.765881 47.583604,146.765881 C48.0629052,146.765881 48.425263,146.674437 48.6706883,146.491547 C48.9161136,146.308657 49.0388244,146.069161 49.0388244,145.773053 Z M53.2052591,147.140369 C53.2052591,146.739752 53.3395192,146.414619 53.6080433,146.164959 C53.8765675,145.915299 54.2129395,145.790471 54.6171694,145.790471 C55.027174,145.790471 55.3664333,145.915299 55.6349575,146.164959 C55.9034816,146.414619 56.0377417,146.739752 56.0377417,147.140369 C56.0377417,147.53518 55.9049253,147.855958 55.6392885,148.102715 C55.3736517,148.349472 55.0329487,148.472848 54.6171694,148.472848 C54.2071647,148.472848 53.8693491,148.349472 53.6037123,148.102715 C53.3380755,147.855958 53.2052591,147.53518 53.2052591,147.140369 Z M53.2052591,140.007684 C53.2052591,139.607068 53.3395192,139.281934 53.6080433,139.032275 C53.8765675,138.782615 54.2129395,138.657787 54.6171694,138.657787 C55.027174,138.657787 55.3664333,138.782615 55.6349575,139.032275 C55.9034816,139.281934 56.0377417,139.607068 56.0377417,140.007684 C56.0377417,140.402495 55.9049253,140.723274 55.6392885,140.970031 C55.3736517,141.216787 55.0329487,141.340164 54.6171694,141.340164 C54.2071647,141.340164 53.8693491,141.216787 53.6037123,140.970031 C53.3380755,140.723274 53.2052591,140.402495 53.2052591,140.007684 Z M58.8788863,149.465676 L57.0165507,149.465676 L61.6593968,135.696721 L63.5217324,135.696721 L58.8788863,149.465676 Z M63.3571539,149.465676 L61.4948183,149.465676 L66.1376643,135.696721 L68,135.696721 L63.3571539,149.465676 Z"/>
    <g transform="translate(131 155)">
      <use fill="#3C3843" xlink:href="#ssl-certificate-d"/>
      <rect width="187" height="139" x="2.5" y="2.5" stroke="#63BA8C" stroke-width="5" rx="2"/>
      <g transform="translate(25.6 25.6)">
        <rect width="140.8" height="22.4" fill="#99DBB8"/>
        <rect width="88" height="11.2" y="30.4" fill="#63BA8C"/>
      </g>
      <path fill="#57B382" d="M148,119.2 C137.396133,119.2 128.8,110.603867 128.8,100 C128.8,89.3961328 137.396133,80.8 148,80.8 C158.603867,80.8 167.2,89.3961328 167.2,100 C167.2,110.603867 158.603867,119.2 148,119.2 Z M137.902297,102.011887 C137.400809,102.531332 137.415367,103.358961 137.934812,103.860448 C137.938166,103.863686 137.941537,103.866906 137.944925,103.870108 L143.501681,109.121084 L157.284452,96.0268485 L157.284452,96.0268485 C157.809306,95.5282148 157.830561,94.6985145 157.331927,94.173661 C157.329512,94.1711189 157.327087,94.1685865 157.324651,94.1660639 C156.816583,93.6398027 155.979195,93.6217123 155.448874,94.1255408 L143.501681,105.475897 L139.781457,101.96779 C139.248689,101.465399 138.410913,101.485058 137.902297,102.011887 Z"/>
    </g>
    <g transform="translate(121 42)">
      <g transform="translate(.127)">
        <use fill="#FFF" xlink:href="#ssl-certificate-e"/>
        <path stroke="#C8C8C8" stroke-width="2" d="M10.2932097,34.0391259 L17.0446802,34.0391259 L17.0446802,17.519563 C17.0446802,12.1295969 21.4103496,7.75978148 26.7961507,7.75978148 C32.1819517,7.75978148 36.5476212,12.1295969 36.5476212,17.519563 L36.5476212,29.6592352 L43.2990917,29.6592352 L43.2990917,17.519563 C43.2990917,8.39584789 35.9102607,1 26.7961507,1 C17.6820406,1 10.2932097,8.39584789 10.2932097,17.519563 L10.2932097,34.0391259 Z"/>
        <rect width="52.509" height="35.039" x=".542" y="26.279" fill="#63BA8C" rx="1"/>
        <path fill="#4A986F" d="M0.541739203,33.2043068 L53.0250863,33.2043068 L53.0250863,36.2675233 L0.541739203,36.2675233 L0.541739203,33.2043068 Z M0.541739203,39.3643039 L53.0250863,39.3643039 L53.0250863,42.4275204 L0.541739203,42.4275204 L0.541739203,39.3643039 Z M0.541739203,45.5243011 L53.0250863,45.5243011 L53.0250863,48.5875175 L0.541739203,48.5875175 L0.541739203,45.5243011 Z M0.541739203,51.6842982 L53.0250863,51.6842982 L53.0250863,54.7475146 L0.541739203,54.7475146 L0.541739203,51.6842982 Z"/>
      </g>
    </g>
  </g>
</svg>
