<?xml version="1.0" encoding="UTF-8"?>
<svg width="15px" height="12px" viewBox="0 0 15 12" version="1.1" xmlns="http://www.w3.org/2000/svg" xmlns:xlink="http://www.w3.org/1999/xlink">
    <!-- Generator: Sketch 46.2 (44496) - http://www.bohemiancoding.com/sketch -->
    <title>twitter</title>
    <desc>Created with Sketch.</desc>
    <defs></defs>
    <g id="Page-1" stroke="none" stroke-width="1" fill="none" fill-rule="evenodd" opacity="0.340000004">
        <g id="Desktop-HD" transform="translate(-936.000000, -4909.000000)" fill-rule="nonzero" fill="#FFFFFF">
            <g id="twitter" transform="translate(936.000000, 4909.000000)">
                <path d="M4.63573592,11.9797991 C10.1984983,11.9797991 13.2405567,7.37130323 13.2405567,3.37497831 C13.2405567,3.24408076 13.2378906,3.11377679 13.2320192,2.98406144 C13.8225248,2.55717408 14.335767,2.02445277 14.7405834,1.41801966 C14.1987013,1.65888144 13.6155659,1.82102563 13.0038401,1.8941389 C13.6282287,1.51972829 14.1075879,0.927456831 14.333739,0.221402495 C13.7494164,0.567806385 13.1023236,0.819575052 12.4133345,0.955503126 C11.8614606,0.36766862 11.0757686,0 10.2057894,0 C8.53567458,0 7.18134029,1.35438376 7.18134029,3.02385552 C7.18134029,3.26117565 7.20787297,3.49201594 7.25976109,3.71343822 C4.74622942,3.58696279 2.51741463,2.38353932 1.02576726,0.55365463 C0.766039771,1.00058495 0.616276515,1.51974313 0.616276515,2.07369455 C0.616276515,3.12293264 1.15019486,4.04920233 1.96210294,4.59108444 C1.4659259,4.57575444 0.999823196,4.43955036 0.592434692,4.21284034 C0.591989512,4.22552894 0.591989512,4.23789948 0.591989512,4.25146063 C0.591989512,5.71610046 1.63445099,6.93895847 3.01826605,7.21605784 C2.76413793,7.28533763 2.49676325,7.32248537 2.22080157,7.32248537 C2.02622854,7.32248537 1.83666131,7.30333474 1.65240655,7.26794596 C2.03742727,8.46958376 3.15389733,9.34401479 4.47756372,9.36845019 C3.44247244,10.1797647 2.13854233,10.6629821 0.721388289,10.6629821 C0.477578438,10.6629821 0.236721608,10.6491142 0,10.6211184 C1.33845623,11.4790283 2.92774626,11.9796077 4.63589915,11.9796077" id="Shape"></path>
            </g>
        </g>
    </g>
</svg>