<?xml version="1.0" encoding="UTF-8"?>
<svg width="14px" height="11px" viewBox="0 0 14 11" version="1.1" xmlns="http://www.w3.org/2000/svg" xmlns:xlink="http://www.w3.org/1999/xlink">
    <!-- Generator: Sketch 46.2 (44496) - http://www.bohemiancoding.com/sketch -->
    <title>weibo</title>
    <desc>Created with Sketch.</desc>
    <defs></defs>
    <g id="Page-1" stroke="none" stroke-width="1" fill="none" fill-rule="evenodd" opacity="0.340000004">
        <g id="Desktop-HD" transform="translate(-936.000000, -4940.000000)" fill-rule="nonzero" fill="#FFFFFF">
            <g id="weibo" transform="translate(936.000000, 4940.000000)">
                <path d="M5.9259922,9.976996 C3.59062581,10.2085865 1.57442617,9.15183321 1.42262735,7.62022209 C1.27082854,6.08666483 3.04181471,4.65819906 5.37523496,4.42660856 C7.71060134,4.19501806 9.72680099,5.25177135 9.87665366,6.78338247 C10.0303986,8.31693973 8.25941244,9.74735164 5.9259922,9.976996 M10.5947788,4.88784342 C10.3962727,4.82751312 10.260043,4.78859035 10.3631883,4.52780777 C10.5889404,3.96148142 10.6122941,3.47300062 10.3670806,3.12269566 C9.90973802,2.46879308 8.65642473,2.50382357 7.2201744,3.10518042 C7.2201744,3.10518042 6.76867023,3.30174042 6.88543855,2.94559705 C7.10535222,2.23525644 7.07226786,1.64168415 6.72974746,1.29721761 C5.951292,0.516816007 3.87865433,1.32640969 2.10182974,3.10323428 C0.772617045,4.43244698 0,5.8433975 0,7.06362643 C0,9.39510054 2.99121511,10.8138356 5.9162615,10.8138356 C9.75210079,10.8138356 12.3034886,8.58550686 12.3034886,6.81646683 C12.3054347,5.74609057 11.4043725,5.13889531 10.5947788,4.88784342" id="Shape"></path>
                <path d="M12.9802419,1.2323621 C12.0538799,0.204800893 10.6876905,-0.186372976 9.42659268,0.0821941583 L9.42659268,0.0821941583 C9.13467188,0.144470595 8.94978871,0.432499116 9.01206515,0.722473775 C9.07434158,1.01439457 9.36042397,1.19927774 9.65234476,1.13700131 C10.5495147,0.94627972 11.5206379,1.22457755 12.1784327,1.95437954 C12.8362276,2.68418154 13.0152724,3.67865839 12.7330823,4.5505285 L12.7330823,4.5505285 C12.6416137,4.83466475 12.7973048,5.13826238 13.0814411,5.22973089 C13.3655773,5.32119941 13.6691749,5.16550832 13.7606435,4.88331821 C13.7606435,4.88331821 13.7606435,4.88137208 13.7606435,4.88137208 C14.1576557,3.65725086 13.9066039,2.25797717 12.9802419,1.2323621" id="Shape"></path>
                <path d="M12.098211,2.5993175 C11.6467068,2.09915986 10.9811274,1.90843827 10.3680937,2.0407757 C10.1170418,2.09332145 9.95745848,2.34242719 10.0100042,2.59347908 C10.0644961,2.84453097 10.3116557,3.00411434 10.5607615,2.94962245 L10.5607615,2.94962245 C10.8604668,2.88539988 11.1874181,2.97881453 11.4073318,3.22208187 C11.6272454,3.46729534 11.6875757,3.80008504 11.5922149,4.09200584 L11.5922149,4.09200584 C11.5143694,4.33527317 11.6467068,4.59800189 11.8919203,4.67779358 C12.1371338,4.75563912 12.3979163,4.62330169 12.477708,4.37808822 C12.6703758,3.78062366 12.5497152,3.09947513 12.098211,2.5993175" id="Shape"></path>
                <path d="M5.93930708,7.67277433 C5.85756926,7.81289631 5.67657836,7.87906503 5.53645638,7.82068087 C5.3963344,7.76424285 5.35351935,7.60660562 5.43331103,7.47037591 C5.51504886,7.33414621 5.6882552,7.26797749 5.82643104,7.32246937 C5.96655302,7.37306898 6.01715263,7.53070621 5.93930708,7.67277433 M5.19393598,8.62638227 C4.96818389,8.98641792 4.48359537,9.14405515 4.11966744,8.97863337 C3.76157793,8.81515772 3.6545403,8.39673791 3.88029239,8.04448681 C4.10409833,7.69418186 4.57117161,7.53849076 4.9331534,7.69028958 C5.29902746,7.84792681 5.41579578,8.26245434 5.19393598,8.62638227 M6.04245243,6.07694064 C4.93120726,5.78696598 3.67594783,6.34161549 3.19330544,7.32052323 C2.70093236,8.31889236 3.17773633,9.4281914 4.2987122,9.79017319 C5.46250311,10.1657779 6.83258472,9.5897209 7.30938869,8.51350623 C7.78035425,7.45869908 7.19262037,6.37469985 6.04245243,6.07694064" id="Shape"></path>
            </g>
        </g>
    </g>
</svg>