<?xml version="1.0" encoding="UTF-8"?>
<svg width="38px" height="34px" viewBox="0 0 38 34" version="1.1" xmlns="http://www.w3.org/2000/svg" xmlns:xlink="http://www.w3.org/1999/xlink">
    <!-- Generator: Sketch 46.2 (44496) - http://www.bohemiancoding.com/sketch -->
    <title>window</title>
    <desc>Created with Sketch.</desc>
    <defs></defs>
    <g id="Page-1" stroke="none" stroke-width="1" fill="none" fill-rule="evenodd">
        <g id="Desktop-HD" transform="translate(-941.000000, -758.000000)">
            <g id="window" transform="translate(940.000000, 755.000000)">
                <rect id="bound" x="0" y="0" width="40" height="40"></rect>
                <path d="M37,3 L37,27.9981215 C37,30.208298 35.2147544,32 33.0098214,32 L4.99017859,32 C2.7864638,32 1,30.2078053 1,27.9981215 L1,3 L37,3 Z" id="Shape" fill="#86DBA2"></path>
                <rect id="Rectangle-3" fill="#443D4E" x="1" y="3" width="36" height="6"></rect>
                <rect id="Rectangle-6" fill="#FFFFFF" x="3" y="5" width="3" height="2"></rect>
                <rect id="Rectangle-6" fill="#FFFFFF" x="8" y="5" width="3" height="2"></rect>
                <rect id="Rectangle-6" fill="#FFFFFF" x="13" y="5" width="3" height="2"></rect>
                <g id="cursor" transform="translate(27.000000, 16.000000)" fill="#443D4E">
                    <polygon id="Shape" points="5.07692308 13.0909091 0 18 0 0 12 13.0909091"></polygon>
                    <path d="M3.5,12.8582191 L5.9341649,12 L8.5,20.1417809 L6.0658351,21 L3.5,12.8582191 Z M5.9341649,12 L8.5,20.1417809 L6.0658351,21 L3.5,12.8582191 L5.9341649,12 Z" id="Shape" fill-rule="nonzero"></path>
                </g>
            </g>
        </g>
    </g>
</svg>