<?xml version="1.0" encoding="UTF-8"?>
<svg width="72px" height="72px" viewBox="0 0 72 72" version="1.1" xmlns="http://www.w3.org/2000/svg" xmlns:xlink="http://www.w3.org/1999/xlink">
    <!-- Generator: Sketch 44.1 (41455) - http://www.bohemiancoding.com/sketch -->
    <title>complete</title>
    <desc>Created with Sketch.</desc>
    <defs>
        <circle id="path-1" cx="36" cy="36" r="36"></circle>
    </defs>
    <g id="Page-1" stroke="none" stroke-width="1" fill="none" fill-rule="evenodd">
        <g id="Express-Marketing" transform="translate(-684.000000, -568.000000)">
            <g id="complete" transform="translate(720.000000, 604.000000) scale(-1, 1) translate(-720.000000, -604.000000) translate(684.000000, 568.000000)">
                <circle id="Oval" stroke="#FFFFFF" cx="36" cy="36" r="35.5"></circle>
                <g id="Group-7">
                    <mask id="mask-2" fill="white">
                        <use xlink:href="#path-1"></use>
                    </mask>
                    <g id="Oval-Copy"></g>
                    <g id="Group-23" mask="url(#mask-2)">
                        <g transform="translate(13.000000, 35.000000)">
                            <path d="M4,0.249081675 L4,0 L-12,0 L-12,1 L3.0343141,1 C1.21102216,2.1513157 0,4.18423316 0,6.5 C0,10.0898509 2.91014913,13 6.5,13 C10.0898509,13 13,10.0898509 13,6.5 C13,4.18423316 11.7889778,2.1513157 9.9656859,1 L22,1 L22,0 L9,0 L9,0.249081675 L9,1.59970959 C10.780838,2.51006509 12,4.36265727 12,6.5 C12,9.53756612 9.53756612,12 6.5,12 C3.46243388,12 1,9.53756612 1,6.5 C1,4.36265727 2.21916205,2.51006509 4,1.59970959 L4,0.249081675 Z" id="Combined-Shape" fill="#FFFFFF" opacity="0.631963315"></path>
                            <g id="Group-20" stroke-width="1" fill="none"></g>
                        </g>
                    </g>
                    <g id="Group-23-Copy" mask="url(#mask-2)">
                        <g transform="translate(40.500000, 53.000000) rotate(-90.000000) translate(-40.500000, -53.000000) translate(22.500000, 46.500000)">
                            <rect id="Rectangle-11" fill="#FFFFFF" x="0" y="0" width="17" height="1"></rect>
                            <rect id="Rectangle-11-Copy" fill="#FFFFFF" x="22" y="0" width="14" height="1"></rect>
                            <g id="Group-20" stroke-width="1" fill="none" transform="translate(13.000000, 0.000000)">
                                <path d="M4,0.498163349 C1.65104815,1.47772297 0,3.79605001 0,6.5 C0,10.0898509 2.91014913,13 6.5,13 C10.0898509,13 13,10.0898509 13,6.5 C13,3.79605001 11.3489518,1.47772297 9,0.498163349 L9,1.59970959 C10.780838,2.51006509 12,4.36265727 12,6.5 C12,9.53756612 9.53756612,12 6.5,12 C3.46243388,12 1,9.53756612 1,6.5 C1,4.36265727 2.21916205,2.51006509 4,1.59970959 L4,0.498163349 Z" id="Combined-Shape" fill="#FFFFFF" fill-rule="nonzero"></path>
                            </g>
                        </g>
                    </g>
                    <g id="Group-23-Copy-2" mask="url(#mask-2)">
                        <g transform="translate(52.500000, 29.500000) rotate(-180.000000) translate(-52.500000, -29.500000) translate(34.000000, 23.000000)">
                            <rect id="Rectangle-11" fill="#FFFFFF" x="0" y="0" width="17" height="1"></rect>
                            <rect id="Rectangle-11-Copy" fill="#FFFFFF" x="22" y="0" width="15" height="1"></rect>
                            <g id="Group-20" stroke-width="1" fill="none" transform="translate(13.000000, 0.000000)">
                                <path d="M4,0.498163349 C1.65104815,1.47772297 0,3.79605001 0,6.5 C0,10.0898509 2.91014913,13 6.5,13 C10.0898509,13 13,10.0898509 13,6.5 C13,3.79605001 11.3489518,1.47772297 9,0.498163349 L9,1.59970959 C10.780838,2.51006509 12,4.36265727 12,6.5 C12,9.53756612 9.53756612,12 6.5,12 C3.46243388,12 1,9.53756612 1,6.5 C1,4.36265727 2.21916205,2.51006509 4,1.59970959 L4,0.498163349 Z" id="Combined-Shape" fill="#FFFFFF" fill-rule="nonzero"></path>
                            </g>
                        </g>
                    </g>
                    <g id="Group-23-Copy-3" mask="url(#mask-2)">
                        <g transform="translate(28.500000, 17.500000) rotate(-270.000000) translate(-28.500000, -17.500000) translate(11.000000, 11.000000)">
                            <path d="M17,0.249081675 L17,0 L0,0 L0,1 L16.0343141,1 C14.2110222,2.1513157 13,4.18423316 13,6.5 C13,10.0898509 15.9101491,13 19.5,13 C23.0898509,13 26,10.0898509 26,6.5 C26,4.18423316 24.7889778,2.1513157 22.9656859,1 L35,1 L35,0 L22,0 L22,0.249081675 L22,1.59970959 C23.780838,2.51006509 25,4.36265727 25,6.5 C25,9.53756612 22.5375661,12 19.5,12 C16.4624339,12 14,9.53756612 14,6.5 C14,4.36265727 15.219162,2.51006509 17,1.59970959 L17,0.249081675 Z" id="Combined-Shape" fill="#FFFFFF" opacity="0.631963315"></path>
                            <g id="Group-20" stroke-width="1" fill="none" transform="translate(13.000000, 0.000000)"></g>
                        </g>
                    </g>
                </g>
            </g>
        </g>
    </g>
</svg>