<?xml version="1.0" encoding="UTF-8"?>
<svg width="54px" height="54px" viewBox="0 0 54 54" version="1.1" xmlns="http://www.w3.org/2000/svg" xmlns:xlink="http://www.w3.org/1999/xlink">
    <!-- Generator: Sketch 44.1 (41455) - http://www.bohemiancoding.com/sketch -->
    <title>compute</title>
    <desc>Created with Sketch.</desc>
    <defs>
        <linearGradient x1="100%" y1="0%" x2="0%" y2="100%" id="linearGradient-1">
            <stop stop-color="#30C476" offset="0%"></stop>
            <stop stop-color="#229C4F" offset="100%"></stop>
        </linearGradient>
    </defs>
    <g id="Page-1" stroke="none" stroke-width="1" fill="none" fill-rule="evenodd">
        <g id="Express-Marketing" transform="translate(-141.000000, -1127.000000)">
            <g id="compute" transform="translate(141.000000, 1127.000000)">
                <rect id="Rectangle-32" fill="url(#linearGradient-1)" x="0" y="0" width="54" height="54"></rect>
                <g id="Group-29" opacity="0.800000012" transform="translate(8.000000, 8.000000)" fill="#FFFFFF">
                    <rect id="Rectangle-32-Copy" opacity="0.300000012" x="0" y="0" width="4" height="4"></rect>
                    <rect id="Rectangle-32-Copy-9" opacity="0.5" x="0" y="5" width="4" height="4"></rect>
                    <rect id="Rectangle-32-Copy-17" opacity="0.300000012" x="0" y="10" width="4" height="4"></rect>
                    <rect id="Rectangle-32-Copy-25" opacity="0.300000012" x="0" y="15" width="4" height="4"></rect>
                    <rect id="Rectangle-32-Copy-33" opacity="0.5" x="0" y="20" width="4" height="4"></rect>
                    <rect id="Rectangle-32-Copy-41" opacity="0.300000012" x="0" y="25" width="4" height="4"></rect>
                    <rect id="Rectangle-32-Copy-49" opacity="0.300000012" x="0" y="30" width="4" height="4"></rect>
                    <rect id="Rectangle-32-Copy-57" opacity="0.5" x="0" y="35" width="4" height="4"></rect>
                    <rect id="Rectangle-32-Copy-2" opacity="0.300000012" x="30" y="0" width="4" height="4"></rect>
                    <rect id="Rectangle-32-Copy-10" x="30" y="5" width="4" height="4"></rect>
                    <rect id="Rectangle-32-Copy-18" opacity="0.5" x="30" y="10" width="4" height="4"></rect>
                    <rect id="Rectangle-32-Copy-26" opacity="0.300000012" x="30" y="15" width="4" height="4"></rect>
                    <rect id="Rectangle-32-Copy-34" opacity="0.300000012" x="30" y="20" width="4" height="4"></rect>
                    <rect id="Rectangle-32-Copy-42" opacity="0.5" x="30" y="25" width="4" height="4"></rect>
                    <rect id="Rectangle-32-Copy-50" x="30" y="30" width="4" height="4"></rect>
                    <rect id="Rectangle-32-Copy-58" opacity="0.5" x="30" y="35" width="4" height="4"></rect>
                    <rect id="Rectangle-32-Copy-8" opacity="0.300000012" x="35" y="0" width="4" height="4"></rect>
                    <rect id="Rectangle-32-Copy-11" opacity="0.300000012" x="35" y="5" width="4" height="4"></rect>
                    <rect id="Rectangle-32-Copy-19" opacity="0.300000012" x="35" y="10" width="4" height="4"></rect>
                    <rect id="Rectangle-32-Copy-27" opacity="0.300000012" x="35" y="15" width="4" height="4"></rect>
                    <rect id="Rectangle-32-Copy-35" opacity="0.5" x="35" y="20" width="4" height="4"></rect>
                    <rect id="Rectangle-32-Copy-43" opacity="0.300000012" x="35" y="25" width="4" height="4"></rect>
                    <rect id="Rectangle-32-Copy-51" opacity="0.300000012" x="35" y="30" width="4" height="4"></rect>
                    <rect id="Rectangle-32-Copy-59" opacity="0.300000012" x="35" y="35" width="4" height="4"></rect>
                    <rect id="Rectangle-32-Copy-3" opacity="0.5" x="15" y="0" width="4" height="4"></rect>
                    <rect id="Rectangle-32-Copy-12" opacity="0.5" x="15" y="5" width="4" height="4"></rect>
                    <rect id="Rectangle-32-Copy-52" opacity="0.300000012" x="15" y="30" width="4" height="4"></rect>
                    <rect id="Rectangle-32-Copy-60" opacity="0.5" x="15" y="35" width="4" height="4"></rect>
                    <rect id="Rectangle-32-Copy-4" opacity="0.5" x="5" y="0" width="4" height="4"></rect>
                    <rect id="Rectangle-32-Copy-13" x="5" y="5" width="4" height="4"></rect>
                    <rect id="Rectangle-32-Copy-21" opacity="0.300000012" x="5" y="10" width="4" height="4"></rect>
                    <rect id="Rectangle-32-Copy-29" opacity="0.5" x="5" y="15" width="4" height="4"></rect>
                    <rect id="Rectangle-32-Copy-37" opacity="0.300000012" x="5" y="20" width="4" height="4"></rect>
                    <rect id="Rectangle-32-Copy-45" opacity="0.5" x="5" y="25" width="4" height="4"></rect>
                    <rect id="Rectangle-32-Copy-53" x="5" y="30" width="4" height="4"></rect>
                    <rect id="Rectangle-32-Copy-61" opacity="0.300000012" x="5" y="35" width="4" height="4"></rect>
                    <rect id="Rectangle-32-Copy-6" opacity="0.300000012" x="20" y="0" width="4" height="4"></rect>
                    <rect id="Rectangle-32-Copy-14" opacity="0.300000012" x="20" y="5" width="4" height="4"></rect>
                    <rect id="Rectangle-32-Copy-54" opacity="0.5" x="20" y="30" width="4" height="4"></rect>
                    <rect id="Rectangle-32-Copy-62" opacity="0.300000012" x="20" y="35" width="4" height="4"></rect>
                    <rect id="Rectangle-32-Copy-5" opacity="0.300000012" x="10" y="0" width="4" height="4"></rect>
                    <rect id="Rectangle-32-Copy-15" opacity="0.5" x="10" y="5" width="4" height="4"></rect>
                    <rect id="Rectangle-32-Copy-55" opacity="0.300000012" x="10" y="30" width="4" height="4"></rect>
                    <rect id="Rectangle-32-Copy-63" opacity="0.300000012" x="10" y="35" width="4" height="4"></rect>
                    <rect id="Rectangle-32-Copy-7" opacity="0.5" x="25" y="0" width="4" height="4"></rect>
                    <rect id="Rectangle-32-Copy-16" opacity="0.5" x="25" y="5" width="4" height="4"></rect>
                    <rect id="Rectangle-32-Copy-56" opacity="0.300000012" x="25" y="30" width="4" height="4"></rect>
                    <rect id="Rectangle-32-Copy-64" opacity="0.5" x="25" y="35" width="4" height="4"></rect>
                </g>
            </g>
        </g>
    </g>
</svg>