<?xml version="1.0" encoding="UTF-8"?>
<svg width="54px" height="48px" viewBox="0 0 54 48" version="1.1" xmlns="http://www.w3.org/2000/svg" xmlns:xlink="http://www.w3.org/1999/xlink">
    <!-- Generator: Sketch 44.1 (41455) - http://www.bohemiancoding.com/sketch -->
    <title>education</title>
    <desc>Created with Sketch.</desc>
    <defs>
        <linearGradient x1="50%" y1="0%" x2="50%" y2="100%" id="linearGradient-1">
            <stop stop-color="#FFFFFF" offset="0%"></stop>
            <stop stop-color="#FFFFFF" stop-opacity="0" offset="100%"></stop>
        </linearGradient>
        <linearGradient x1="0%" y1="0%" x2="95.367141%" y2="100%" id="linearGradient-2">
            <stop stop-color="#FFFFFF" offset="0%"></stop>
            <stop stop-color="#FFFFFF" stop-opacity="0.308990036" offset="100%"></stop>
        </linearGradient>
    </defs>
    <g id="Page-1" stroke="none" stroke-width="1" fill="none" fill-rule="evenodd">
        <g id="Express-Marketing" transform="translate(-739.000000, -4369.000000)">
            <g id="education" transform="translate(739.000000, 4369.000000)">
                <rect id="Rectangle-18" fill="url(#linearGradient-1)" x="26.5" y="7" width="1" height="40"></rect>
                <path d="M0.5,0.5 L0.5,41.5000684 L12.1561146,41.5016637 C17.5054727,41.5023958 22.6857597,43.3570683 26.8091153,46.7371329 C26.8666804,46.782411 26.9296133,46.8335726 26.998,46.8906741 C27.065897,46.8342867 27.127876,46.784961 27.1830285,46.7434413 C31.3142403,43.3570683 36.4945273,41.5023958 41.8438854,41.5016637 L53.5,41.5000684 L53.5,0.5 L35.5,0.5 C31.856154,0.5 28.653021,2.81400357 27.4720983,6.19919835 L27,7.55250015 L26.5279017,6.19919835 C25.346979,2.81400357 22.143846,0.5 18.5,0.5 L0.5,0.5 Z" id="Combined-Shape" stroke="#FFFFFF"></path>
                <path d="M33,7 L48,7 L48,8 L33,8 L33,7 Z M6,7 L21,7 L21,8 L6,8 L6,7 Z M33,13 L48,13 L48,14 L33,14 L33,13 Z M6,13 L21,13 L21,14 L6,14 L6,13 Z M33,25 L48,25 L48,26 L33,26 L33,25 Z M6,19 L14,19 L14,20 L6,20 L6,19 Z M6,25 L21,25 L21,26 L6,26 L6,25 Z M6,31 L21,31 L21,32 L6,32 L6,31 Z M33,10 L48,10 L48,11 L33,11 L33,10 Z M6,10 L21,10 L21,11 L6,11 L6,10 Z M33,16 L48,16 L48,17 L33,17 L33,16 Z M6,16 L21,16 L21,17 L6,17 L6,16 Z M33,28 L48,28 L48,29 L33,29 L33,28 Z M6,28 L21,28 L21,29 L6,29 L6,28 Z M6,34 L14,34 L14,35 L6,35 L6,34 Z M33,19 L41,19 L41,20 L33,20 L33,19 Z M33,31 L41,31 L41,32 L33,32 L33,31 Z" id="Combined-Shape" fill="url(#linearGradient-2)" opacity="0.486469656"></path>
            </g>
        </g>
    </g>
</svg>