<?xml version="1.0" encoding="UTF-8"?>
<svg width="47px" height="56px" viewBox="0 0 47 56" version="1.1" xmlns="http://www.w3.org/2000/svg" xmlns:xlink="http://www.w3.org/1999/xlink">
    <!-- Generator: Sketch 44.1 (41455) - http://www.bohemiancoding.com/sketch -->
    <title>enterprise</title>
    <desc>Created with Sketch.</desc>
    <defs>
        <linearGradient x1="100%" y1="0%" x2="0%" y2="100%" id="linearGradient-1">
            <stop stop-color="#30C476" offset="0%"></stop>
            <stop stop-color="#229C4F" offset="100%"></stop>
        </linearGradient>
        <linearGradient x1="0%" y1="0%" x2="69.8857571%" y2="100%" id="linearGradient-2">
            <stop stop-color="#FFFFFF" stop-opacity="0.39637115" offset="0%"></stop>
            <stop stop-color="#FFFFFF" stop-opacity="0.132501132" offset="100%"></stop>
        </linearGradient>
        <linearGradient x1="-162.451689%" y1="0%" x2="69.8857571%" y2="100%" id="linearGradient-3">
            <stop stop-color="#FFFFFF" stop-opacity="0.39637115" offset="0%"></stop>
            <stop stop-color="#FFFFFF" stop-opacity="0.132501132" offset="100%"></stop>
        </linearGradient>
    </defs>
    <g id="Page-1" stroke="none" stroke-width="1" fill="none" fill-rule="evenodd">
        <g id="Express-Marketing" transform="translate(-1040.000000, -4331.000000)">
            <g id="enterprise" transform="translate(1041.000000, 4331.000000)">
                <g id="Group-22" transform="translate(-1.000000, 0.000000)">
                    <path d="M34,23 L47,23 L47,56 L33.5,56 L0,56 L0,0 L34,0 L34,23 Z M13,44 L13,56 L21,56 L21,44 L13,44 Z" id="Combined-Shape" fill="url(#linearGradient-1)"></path>
                    <path d="M6,7 L10,7 L10,13 L6,13 L6,7 Z M6,15 L10,15 L10,21 L6,21 L6,15 Z M6,23 L10,23 L10,29 L6,29 L6,23 Z M6,31 L10,31 L10,37 L6,37 L6,31 Z M12,7 L16,7 L16,13 L12,13 L12,7 Z M12,15 L16,15 L16,21 L12,21 L12,15 Z M12,23 L16,23 L16,29 L12,29 L12,23 Z M12,31 L16,31 L16,37 L12,37 L12,31 Z M18,7 L22,7 L22,13 L18,13 L18,7 Z M18,15 L22,15 L22,21 L18,21 L18,15 Z M18,23 L22,23 L22,29 L18,29 L18,23 Z M18,31 L22,31 L22,37 L18,37 L18,31 Z M24,7 L28,7 L28,13 L24,13 L24,7 Z M24,15 L28,15 L28,21 L24,21 L24,15 Z M24,23 L28,23 L28,29 L24,29 L24,23 Z M24,31 L28,31 L28,37 L24,37 L24,31 Z" id="Combined-Shape" fill="url(#linearGradient-2)"></path>
                    <path d="M38,30 L42,30 L42,36 L38,36 L38,30 Z M38,38 L42,38 L42,44 L38,44 L38,38 Z" id="Combined-Shape" fill="url(#linearGradient-3)"></path>
                </g>
            </g>
        </g>
    </g>
</svg>