<?xml version="1.0" encoding="UTF-8"?>
<svg width="59px" height="56px" viewBox="0 0 59 56" version="1.1" xmlns="http://www.w3.org/2000/svg" xmlns:xlink="http://www.w3.org/1999/xlink">
    <!-- Generator: Sketch 44.1 (41455) - http://www.bohemiancoding.com/sketch -->
    <title>finance</title>
    <desc>Created with Sketch.</desc>
    <defs>
        <linearGradient x1="100%" y1="0%" x2="0%" y2="100%" id="linearGradient-1">
            <stop stop-color="#30C476" offset="0%"></stop>
            <stop stop-color="#229C4F" offset="100%"></stop>
        </linearGradient>
        <linearGradient x1="100%" y1="0%" x2="0%" y2="100%" id="linearGradient-2">
            <stop stop-color="#B7EBD0" offset="0%"></stop>
            <stop stop-color="#71CB92" offset="100%"></stop>
        </linearGradient>
        <linearGradient x1="-9.0582435%" y1="7.32736698%" x2="100%" y2="96.3037101%" id="linearGradient-3">
            <stop stop-color="#FFFFFF" stop-opacity="0.559159873" offset="0%"></stop>
            <stop stop-color="#FFFFFF" stop-opacity="0.199558424" offset="100%"></stop>
        </linearGradient>
    </defs>
    <g id="Page-1" stroke="none" stroke-width="1" fill="none" fill-rule="evenodd">
        <g id="Express-Marketing" transform="translate(-440.000000, -4331.000000)">
            <g id="finance" transform="translate(440.000000, 4331.000000)">
                <path d="M38.8142981,53.8352251 C35.4870454,55.2296179 31.8334889,56 28,56 C12.536027,56 0,43.463973 0,28 C0,24.2812883 0.724941183,20.7318957 2.04120987,17.4854359 L28.0117328,28.0240102 L16.0356213,2.67763371 C19.663579,0.960464546 23.7196253,0 28,0 C43.463973,0 56,12.536027 56,28 C56,29.6030155 55.8652921,31.1745683 55.6065787,32.7039559 C53.3491692,31.0062045 50.5420904,30 47.5,30 C40.0441559,30 34,36.0441559 34,43.5 C34,47.6478577 35.8706378,51.3588045 38.8142981,53.8352251 Z M47.5,55 C41.1487254,55 36,49.8512746 36,43.5 C36,37.1487254 41.1487254,32 47.5,32 C53.8512746,32 59,37.1487254 59,43.5 C59,49.8512746 53.8512746,55 47.5,55 Z" id="Combined-Shape" fill="url(#linearGradient-1)"></path>
                <g id="Group-16" transform="translate(3.000000, 4.000000)" fill="url(#linearGradient-2)">
                    <path d="M0.276676112,10.8444879 C2.58838171,6.50911882 6.00706994,2.85336022 10.155435,0.254517983 L22.945775,21.9351227 L0.276676112,10.8444879 Z" id="Combined-Shape"></path>
                </g>
                <g id="Group-19" transform="translate(43.000000, 37.000000)" fill="url(#linearGradient-3)">
                    <path d="M5,8 L5,6 L9,6 L9,5 L5.36127706,5 L9.11199,1.24928706 L8.53295809,0.670255139 L4.62875393,4.5744593 L0.604628332,0.550333703 L0.0255964157,1.12936562 L3.8962308,5 L0,5 L0,6 L4,6 L4,8 L0,8 L0,9 L4,9 L4,13 L5,13 L5,9 L9,9 L9,8 L5,8 Z" id="Combined-Shape"></path>
                </g>
            </g>
        </g>
    </g>
</svg>