<?xml version="1.0" encoding="UTF-8"?>
<svg width="55px" height="55px" viewBox="0 0 55 55" version="1.1" xmlns="http://www.w3.org/2000/svg" xmlns:xlink="http://www.w3.org/1999/xlink">
    <!-- Generator: Sketch 44.1 (41455) - http://www.bohemiancoding.com/sketch -->
    <title>global</title>
    <desc>Created with Sketch.</desc>
    <defs>
        <linearGradient x1="50%" y1="0%" x2="50%" y2="100%" id="linearGradient-1">
            <stop stop-color="#7EDFA3" offset="0%"></stop>
            <stop stop-color="#3CB16C" offset="100%"></stop>
        </linearGradient>
    </defs>
    <g id="Page-1" stroke="none" stroke-width="1" fill="none" fill-rule="evenodd" opacity="0.870000005">
        <g id="Express-Marketing" transform="translate(-940.000000, -1514.000000)" fill="url(#linearGradient-1)">
            <g id="global" transform="translate(940.000000, 1514.000000)">
                <path d="M43.399066,5.87814294 C43.6486678,5.71501848 45.1393781,7.05349882 46.8592404,8.61319432 C48.5791026,10.1728898 50.3417287,12.8525244 50.1056819,13.0067901 C49.8587765,13.1681524 47.7946478,11.2536151 45.893336,9.24445027 C43.9920242,7.23528541 43.1657156,6.03064646 43.399066,5.87814294 Z M38.361754,2.79384025 C39.5780754,2.35736505 41.907144,7.28411973 45.1160305,10.5669717 C48.3249169,13.8498236 53.5710215,17.0733048 52.9654916,17.943594 C52.2731205,18.9386944 47.318671,16.7064452 43.023719,11.885066 C38.7287669,7.06368681 37.59507,3.06896372 38.361754,2.79384025 Z M41.4749361,12.2707013 C46.8862282,18.1520945 53.9966739,20.1581515 53.9607921,21.5474075 C53.9061563,23.662773 45.6731108,21.0609325 39.474958,13.7032486 C34.1925891,7.43267071 33.1277676,1.80208911 34.0947686,1.51047114 C35.8693513,0.97531118 37.8441756,8.35266433 41.4749361,12.2707013 Z M38.3058501,14.0267871 C48.5553432,25.3916736 54.2130433,23.1505914 54.5099498,25.2666987 C54.8337996,27.5748367 43.7786014,24.7848871 36.3038691,16.1650738 C30.2078315,9.13516236 29.3947597,1.05628973 30.5665744,0.889777771 C33.0687675,0.534222326 32.5153353,7.60612386 38.3058501,14.0267871 Z M35.4213499,16.6382513 C45.9368456,28.2559405 54.3007194,26.3813194 54.5740686,28.7279856 C54.8434245,31.0403699 41.5063399,27.97232 33.4791,18.4845352 C27.0650893,10.9035043 25.53261,1.04819381 27.1222725,0.803295137 C29.7040127,0.405559946 29.0299642,9.57694524 35.4213499,16.6382513 Z M32.143125,18.804375 C43.7198999,32.5745201 54.4039062,29.23 54.3092187,31.915625 C54.2271711,34.2427454 38.4034375,30.9170313 30.2964062,20.8017188 C23.136034,11.8675725 22.2147973,1.00967158 23.8167969,0.895546875 C26.4060156,0.71109375 24.461875,9.6678125 32.143125,18.804375 Z M28.8923437,20.956875 C40.4691186,34.7270201 53.7046875,32.0351563 53.61,34.7207813 C53.5279524,37.0479017 35.8193368,34.1456349 27.1590625,22.7817188 C19.5304688,12.7715625 19.0381567,1.75912471 20.6401562,1.645 C23.229375,1.46054688 21.2110937,11.8203125 28.8923437,20.956875 Z M26.0553076,23.5284082 C39.0100773,39.0274835 52.9202889,35.0611568 52.8256014,37.7467818 C52.7435538,40.0739022 33.3516879,37.6360554 24.1142692,25.2174817 C16.7368204,15.2994089 15.7842309,2.6417126 17.3862305,2.52758789 C19.9754492,2.34313477 17.0822505,12.7930504 26.0553076,23.5284082 Z M23.2190851,25.9986301 C36.7167011,42.1905515 51.5053905,37.828778 51.410703,40.514403 C51.3286554,42.8415234 31.0763144,40.7344796 21.1974192,27.7328699 C13.1727669,17.1716286 12.6067135,4.13226405 14.2122095,4.09469786 C16.8397795,4.03321668 14.2572715,15.2479181 23.2190851,25.9986301 Z M20.3144201,28.4292995 C33.8120361,44.6212209 49.6617233,40.7624155 49.5670358,43.4480405 C49.4849881,45.7751609 28.8099542,44.1921258 18.2930732,30.039539 C9.79714829,18.6065567 9.60126004,6.28024512 11.2067561,6.24267893 C13.8343261,6.18119775 11.3526065,17.6785875 20.3144201,28.4292995 Z M17.3195558,30.9119194 C31.3476905,47.9390352 46.7785668,43.9145092 46.9939896,46.3404235 C47.1963959,48.6197578 26.0174425,46.7159863 15.2002637,32.4792106 C6.43577987,20.9440412 6.42636094,8.99382991 8.03185699,8.95626372 C10.659427,8.89478254 8.42187431,20.1120621 17.3195558,30.9119194 Z M15.0340815,34.2043885 C28.2654075,50.0534798 43.6204523,46.8422663 43.8973628,49.1079743 C44.1722004,51.3567218 24.2658929,49.6874289 12.6779813,35.1921258 C3.72652102,23.9947561 3.55057185,12.8446891 4.99464266,12.8200515 C7.54485001,12.7765418 4.46443158,21.5435752 15.0340815,34.2043885 Z M12.6343679,37.237211 C26.7390126,52.3784993 38.9888631,49.7654496 39.2503133,51.5605596 C39.5769804,53.8034465 21.8618766,52.1802329 10.3346454,38.1421718 C1.10747349,26.9051625 1.01862962,17.9192513 2.46281511,17.9373352 C4.73924764,17.9658406 2.28428819,26.1264354 12.6343679,37.237211 Z M10.0162345,40.0227452 C23.5766876,53.8636031 32.3095363,51.6883797 32.5709865,53.4834896 C32.8976535,55.7263765 18.7371834,53.457163 7.98867441,41.2648678 C-0.109112677,32.079351 -0.204303307,25.5203515 1.23091252,25.3748677 C2.70501969,25.2254416 1.13541057,30.9582824 10.0162345,40.0227452 Z M10.110234,45.587693 C15.2506358,50.2425963 21.6181743,52.8600269 21.4293944,53.5780837 C21.1723017,54.5559802 13.5328715,51.73722 8.69567938,46.9577648 C4.5848134,42.8959663 1.55699905,37.4013962 2.60933617,37.1045412 C3.34504381,36.8970047 5.26884505,41.2035616 10.110234,45.587693 Z" id="Combined-Shape"></path>
            </g>
        </g>
    </g>
</svg>