<?xml version="1.0" encoding="UTF-8"?>
<svg width="56px" height="56px" viewBox="0 0 56 56" version="1.1" xmlns="http://www.w3.org/2000/svg" xmlns:xlink="http://www.w3.org/1999/xlink">
    <!-- Generator: Sketch 44.1 (41455) - http://www.bohemiancoding.com/sketch -->
    <title>gorvernment</title>
    <desc>Created with Sketch.</desc>
    <defs>
        <linearGradient x1="37.9160033%" y1="0%" x2="65.9952358%" y2="95.1095748%" id="linearGradient-1">
            <stop stop-color="#FFFFFF" stop-opacity="0.219514266" offset="0%"></stop>
            <stop stop-color="#FFFFFF" stop-opacity="0.0674252717" offset="100%"></stop>
        </linearGradient>
        <linearGradient x1="50.7194675%" y1="1.43893495%" x2="100%" y2="100%" id="linearGradient-2">
            <stop stop-color="#FFFFFF" stop-opacity="0.733667346" offset="0%"></stop>
            <stop stop-color="#FFFFFF" stop-opacity="0" offset="100%"></stop>
        </linearGradient>
    </defs>
    <g id="Page-1" stroke="none" stroke-width="1" fill="none" fill-rule="evenodd">
        <g id="Express-Marketing" transform="translate(-140.000000, -4366.000000)">
            <g id="gorvernment" transform="translate(140.000000, 4366.000000)">
                <g id="Group-15">
                    <path d="M5,27 L9,27 L9,33 L5,33 L5,27 Z M11,27 L15,27 L15,33 L11,33 L11,27 Z M17,27 L21,27 L21,33 L17,33 L17,27 Z M23,27 L27,27 L27,33 L23,33 L23,27 Z M29,27 L33,27 L33,33 L29,33 L29,27 Z M35,27 L39,27 L39,33 L35,33 L35,27 Z M41,27 L45,27 L45,33 L41,33 L41,27 Z M47,27 L51,27 L51,33 L47,33 L47,27 Z M5,35 L9,35 L9,41 L5,41 L5,35 Z M11,35 L15,35 L15,41 L11,41 L11,35 Z M17,35 L21,35 L21,41 L17,41 L17,35 Z M23,35 L27,35 L27,41 L23,41 L23,35 Z M29,35 L33,35 L33,41 L29,41 L29,35 Z M35,35 L39,35 L39,41 L35,41 L35,35 Z M41,35 L45,35 L45,41 L41,41 L41,35 Z M47,35 L51,35 L51,41 L47,41 L47,35 Z M5,43 L9,43 L9,49 L5,49 L5,43 Z M11,43 L15,43 L15,49 L11,49 L11,43 Z M17,43 L21,43 L21,49 L17,49 L17,43 Z M23,43 L27,43 L27,49 L23,49 L23,43 Z M29,43 L33,43 L33,49 L29,49 L29,43 Z M35,43 L39,43 L39,49 L35,49 L35,43 Z M41,43 L45,43 L45,49 L41,49 L41,43 Z M47,43 L51,43 L51,49 L47,49 L47,43 Z" id="Combined-Shape" fill="url(#linearGradient-1)"></path>
                    <polygon id="Rectangle-7" fill="url(#linearGradient-2)" opacity="0.504098756" points="21 0 35 2 35 11 21 9"></polygon>
                    <rect id="Rectangle-5" stroke="#FFFFFF" x="9.5" y="15.5" width="37" height="6"></rect>
                    <rect id="Rectangle-5-Copy" stroke="#FFFFFF" x="0.5" y="21.5" width="55" height="34"></rect>
                </g>
                <polygon id="Rectangle-17" fill="#FFFFFF" points="21 0 22 0.140993151 22 9.14099315 21 9"></polygon>
            </g>
        </g>
    </g>
</svg>