<?xml version="1.0" encoding="UTF-8"?>
<svg width="56px" height="56px" viewBox="0 0 56 56" version="1.1" xmlns="http://www.w3.org/2000/svg" xmlns:xlink="http://www.w3.org/1999/xlink">
    <!-- Generator: Sketch 44.1 (41455) - http://www.bohemiancoding.com/sketch -->
    <title>government</title>
    <desc>Created with Sketch.</desc>
    <defs>
        <linearGradient x1="100%" y1="0%" x2="0%" y2="100%" id="linearGradient-1">
            <stop stop-color="#30C476" offset="0%"></stop>
            <stop stop-color="#229C4F" offset="100%"></stop>
        </linearGradient>
        <linearGradient x1="0%" y1="0%" x2="69.8857571%" y2="100%" id="linearGradient-2">
            <stop stop-color="#FFFFFF" stop-opacity="0.39637115" offset="0%"></stop>
            <stop stop-color="#FFFFFF" stop-opacity="0.132501132" offset="100%"></stop>
        </linearGradient>
    </defs>
    <g id="Page-1" stroke="none" stroke-width="1" fill="none" fill-rule="evenodd">
        <g id="Express-Marketing" transform="translate(-140.000000, -4331.000000)">
            <g id="government" transform="translate(140.000000, 4331.000000)">
                <path d="M47,21 L47,15 L9,15 L9,21 L0,21 L0,56 L56,56 L56,21 L47,21 Z M21,0 L35,2 L35,11 L21,9 L21,0 Z" id="Combined-Shape" fill="url(#linearGradient-1)"></path>
                <path d="M5,27 L9,27 L9,33 L5,33 L5,27 Z M11,27 L15,27 L15,33 L11,33 L11,27 Z M17,27 L21,27 L21,33 L17,33 L17,27 Z M23,27 L27,27 L27,33 L23,33 L23,27 Z M29,27 L33,27 L33,33 L29,33 L29,27 Z M35,27 L39,27 L39,33 L35,33 L35,27 Z M41,27 L45,27 L45,33 L41,33 L41,27 Z M47,27 L51,27 L51,33 L47,33 L47,27 Z M5,35 L9,35 L9,41 L5,41 L5,35 Z M11,35 L15,35 L15,41 L11,41 L11,35 Z M17,35 L21,35 L21,41 L17,41 L17,35 Z M23,35 L27,35 L27,41 L23,41 L23,35 Z M29,35 L33,35 L33,41 L29,41 L29,35 Z M35,35 L39,35 L39,41 L35,41 L35,35 Z M41,35 L45,35 L45,41 L41,41 L41,35 Z M47,35 L51,35 L51,41 L47,41 L47,35 Z M5,43 L9,43 L9,49 L5,49 L5,43 Z M11,43 L15,43 L15,49 L11,49 L11,43 Z M17,43 L21,43 L21,49 L17,49 L17,43 Z M23,43 L27,43 L27,49 L23,49 L23,43 Z M29,43 L33,43 L33,49 L29,49 L29,43 Z M35,43 L39,43 L39,49 L35,49 L35,43 Z M41,43 L45,43 L45,49 L41,49 L41,43 Z M47,43 L51,43 L51,49 L47,49 L47,43 Z" id="Combined-Shape" fill="url(#linearGradient-2)"></path>
            </g>
        </g>
    </g>
</svg>