<?xml version="1.0" encoding="UTF-8"?>
<svg width="111px" height="84px" viewBox="0 0 111 84" version="1.1" xmlns="http://www.w3.org/2000/svg" xmlns:xlink="http://www.w3.org/1999/xlink">
    <!-- Generator: Sketch 44.1 (41455) - http://www.bohemiancoding.com/sketch -->
    <title>qingcloudlogo2</title>
    <desc>Created with Sketch.</desc>
    <defs></defs>
    <g id="Page-1" stroke="none" stroke-width="1" fill="none" fill-rule="evenodd">
        <g id="Express-Marketing" transform="translate(-1186.000000, -5248.000000)" fill-rule="nonzero">
            <g id="qingcloudlogo2" transform="translate(1186.000000, 5248.000000)">
                <path d="M67.5531395,33.257817 L76.7754111,38.5606232 L67.5531395,43.9210685 L67.5531395,33.257817 Z M68.2448099,31.9897546 L77.5247207,26.6293093 L77.5247207,37.2925608 L68.2448099,31.9897546 Z M67.5531395,20.0008015 L76.7754111,25.3612469 L67.5531395,30.7216923 L67.5531395,20.0008015 Z M33.9494874,12.1618707 L43.171759,6.80142531 L43.171759,17.5223161 L33.9494874,12.1618707 Z M33.2001778,13.429933 L42.4800886,18.7903784 L33.2001778,24.0931846 L33.2001778,13.429933 Z M33.2001778,26.6293093 L42.4800886,31.9897546 L33.2001778,37.2925608 L33.2001778,26.6293093 Z M67.5531395,6.80142531 L76.7754111,12.1618707 L67.5531395,17.5223161 L67.5531395,6.80142531 Z M68.2448099,18.7903784 L77.5247207,13.429933 L77.5247207,24.0931846 L68.2448099,18.7903784 Z M56.8322488,12.1618707 L66.0545204,6.80142531 L66.0545204,17.5223161 L56.8322488,12.1618707 Z M56.8322488,38.5606232 L66.0545204,33.257817 L66.0545204,43.9210685 L56.8322488,38.5606232 Z M45.3620485,5.53336296 L54.6419593,0.23055679 L54.6419593,10.8938083 L45.3620485,5.53336296 Z M56.0829392,0.23055679 L65.36285,5.53336296 L56.0829392,10.8938083 L56.0829392,0.23055679 Z M56.0829392,39.8286855 L65.36285,45.1891309 L56.0829392,50.5495762 L56.0829392,39.8286855 Z M56.8322488,51.8176386 L66.0545204,46.4571932 L66.0545204,57.1204448 L56.8322488,51.8176386 Z M44.6703781,33.257817 L53.8926497,38.5606232 L44.6703781,43.9210685 L44.6703781,33.257817 Z M44.6703781,6.80142531 L53.8926497,12.1618707 L44.6703781,17.5223161 L44.6703781,6.80142531 Z M33.9494874,25.3612469 L43.171759,20.0584407 L43.171759,30.7216923 L33.9494874,25.3612469 Z M33.9494874,38.5606232 L43.171759,33.257817 L43.171759,43.9210685 L33.9494874,38.5606232 Z M45.3620485,45.1891309 L54.6419593,39.8286855 L54.6419593,50.5495762 L45.3620485,45.1891309 Z" id="Combined-Shape" fill="#29AF5B"></path>
                <path d="M8.70351883,77.5823599 C8.70351883,78.5622262 7.43545648,79.7726494 6.34031173,80.3490414 C7.26253889,80.810155 7.78129167,81.0983509 8.24240525,81.3865469 C8.58824043,81.6171037 8.70351883,81.7900213 8.58824043,82.1358565 C8.53060124,82.4240525 8.06948766,83.0580837 7.72365247,83.0580837 C7.49309568,83.0580837 7.32017809,82.9428053 6.9167037,82.7122485 C6.28267253,82.3087741 4.89933179,81.4441861 3.34307346,80.810155 C1.95973272,80.233763 0.23055679,78.792783 0.23055679,77.5823599 L0.23055679,70.031625 C0.23055679,68.5330059 2.99723827,66.5732732 4.43821821,66.5732732 C5.93683735,66.5732732 8.64587963,68.5906451 8.64587963,70.031625 L8.64587963,77.5823599 L8.70351883,77.5823599 Z M2.3632071,77.2941639 C2.3632071,78.0434735 3.74654784,79.080979 4.43821821,79.080979 C5.12988858,79.080979 6.57086852,78.0434735 6.57086852,77.2941639 L6.57086852,70.319821 C6.57086852,69.5705114 5.18752778,68.5330059 4.43821821,68.5330059 C3.74654784,68.5330059 2.3632071,69.5705114 2.3632071,70.319821 L2.3632071,77.2941639 Z M13.2570154,80.4066806 C13.2570154,80.6372374 13.0840978,80.8677941 12.7959019,80.8677941 L11.6431179,80.8677941 C11.4125611,80.8677941 11.1820043,80.6372374 11.1820043,80.4066806 L11.1820043,67.2073043 C11.1820043,66.9767475 11.4125611,66.7461908 11.6431179,66.7461908 L12.7959019,66.7461908 C13.0840978,66.7461908 13.2570154,66.9767475 13.2570154,67.2073043 L13.2570154,80.4066806 Z M18.0410688,71.4149658 L18.0410688,80.4643198 C18.0410688,80.7525158 17.810512,80.9254333 17.5223161,80.9254333 L16.4271713,80.9254333 C16.1966145,80.9254333 15.9084185,80.7525158 15.9084185,80.4643198 L15.9084185,67.2649435 C15.9084185,67.0343867 16.1389753,66.8038299 16.4271713,66.8038299 L17.3493985,66.8038299 C17.6952336,66.8038299 17.8681512,66.9767475 18.0410688,67.2649435 L22.3640086,76.3719367 L22.3640086,67.2649435 C22.3640086,66.9767475 22.5369262,66.8038299 22.8251222,66.8038299 L23.920267,66.8038299 C24.208463,66.8038299 24.4390198,66.9767475 24.4390198,67.2649435 L24.4390198,80.4643198 C24.4390198,80.7525158 24.208463,80.9254333 23.920267,80.9254333 L23.055679,80.9254333 C22.7098438,80.9254333 22.5369262,80.6948766 22.3640086,80.4643198 L18.0410688,71.4149658 Z M31.5286411,73.2594201 C31.5286411,73.0288633 31.7591978,72.7983065 32.0473938,72.7983065 L34.6987969,72.7983065 C34.9869929,72.7983065 35.3904673,73.2017809 35.3904673,73.4899769 L35.3904673,77.6399991 C35.3904673,79.080979 32.681425,81.0983509 31.1828059,81.0983509 C29.7418259,81.0983509 26.9751444,79.080979 26.9751444,77.6399991 L26.9751444,70.0892642 C26.9751444,68.5906451 29.7994651,66.6309124 31.1828059,66.6309124 C32.105033,66.6309124 33.4883738,67.3225827 34.4682401,67.9566139 C34.7564361,68.1295315 34.8140753,68.4177275 34.6987969,68.6482843 L34.3529617,69.3399546 C34.2376833,69.5705114 33.8918482,69.6857898 33.6036522,69.5128722 C32.8543426,69.1093979 31.7591978,68.5906451 31.1828059,68.5906451 C30.5487747,68.5906451 29.1077948,69.6281506 29.1077948,70.3774602 L29.1077948,77.4094423 C29.1077948,78.1587519 30.5487747,79.1962574 31.1828059,79.1962574 C31.816837,79.1962574 33.257817,78.1011127 33.257817,77.4094423 L33.257817,74.7580392 L32.0473938,74.7580392 C31.816837,74.7580392 31.5286411,74.5274824 31.5286411,74.2969256 L31.5286411,73.2594201 L31.5286411,73.2594201 Z M39.4252111,77.2941639 C39.4252111,78.0434735 40.9238303,79.080979 41.5002222,79.080979 C42.0766142,79.080979 42.9988414,78.6198654 43.7481509,78.1587519 C44.0363469,77.9858343 44.4398213,78.1011127 44.5550997,78.3893087 L44.9009349,79.080979 C45.0162133,79.369175 44.9585741,79.657371 44.7280173,79.7726494 C43.7481509,80.3490414 42.5377278,80.9830725 41.5002222,80.9830725 C40.1168815,80.9830725 37.2925608,79.080979 37.2925608,77.5247207 L37.2925608,69.9739858 C37.2925608,68.4753667 40.0592423,66.515634 41.5002222,66.515634 C42.4224494,66.515634 43.6328725,67.1496651 44.6703781,67.7260571 C44.9009349,67.8413355 45.0162133,68.1871707 44.8432957,68.4753667 L44.4974605,69.167037 C44.3821821,69.3975938 44.0363469,69.5128722 43.7481509,69.3399546 C42.9988414,68.9364803 42.0766142,68.4753667 41.442583,68.4753667 C40.8661911,68.4753667 39.3675719,69.5128722 39.3675719,70.2621818 L39.3675719,77.2941639 L39.4252111,77.2941639 Z M46.68775,80.0032062 L46.68775,67.2073043 C46.68775,66.9767475 46.9183068,66.7461908 47.2065028,66.7461908 L48.3016475,66.7461908 C48.5898435,66.7461908 48.8204003,66.9767475 48.8204003,67.2073043 L48.8204003,79.0233398 L52.8551441,79.0233398 C53.1433401,79.0233398 53.3738969,79.2538966 53.3738969,79.4844534 L53.3738969,80.4066806 C53.3738969,80.6372374 53.1433401,80.8677941 52.8551441,80.8677941 L47.4946988,80.8677941 C47.2065028,80.8677941 46.68775,80.2914022 46.68775,80.0032062 Z M62.6538077,77.5823599 C62.6538077,79.080979 59.8871262,81.0407117 58.4461463,81.0407117 C57.0051664,81.0407117 54.2384849,79.080979 54.2384849,77.5823599 L54.2384849,70.031625 C54.2384849,68.5330059 57.0051664,66.5732732 58.4461463,66.5732732 C59.9447654,66.5732732 62.6538077,68.5906451 62.6538077,70.031625 L62.6538077,77.5823599 Z M56.3711352,77.2941639 C56.3711352,78.0434735 57.7544759,79.080979 58.4461463,79.080979 C59.1378167,79.080979 60.5787966,78.0434735 60.5787966,77.2941639 L60.5787966,70.319821 C60.5787966,69.5705114 59.1954559,68.5330059 58.4461463,68.5330059 C57.7544759,68.5330059 56.3711352,69.5705114 56.3711352,70.319821 L56.3711352,77.2941639 Z M69.2246762,81.0983509 C67.7836963,81.0983509 65.0170148,79.1962574 65.0170148,77.6399991 L65.0170148,67.2649435 C65.0170148,67.0343867 65.2475716,66.8038299 65.4781284,66.8038299 L66.6309124,66.8038299 C66.9191083,66.8038299 67.1496651,67.0343867 67.1496651,67.2649435 L67.1496651,77.4094423 C67.1496651,78.1587519 68.5330059,79.1962574 69.2246762,79.1962574 C69.9163466,79.1962574 71.2996874,78.1587519 71.2996874,77.4094423 L71.2996874,67.2649435 C71.2996874,67.0343867 71.472605,66.8038299 71.7608009,66.8038299 L72.9135849,66.8038299 C73.1441417,66.8038299 73.4323377,67.0343867 73.4323377,67.2649435 L73.4323377,77.6399991 C73.3746985,79.1386182 70.608017,81.0983509 69.2246762,81.0983509 Z M84.2108676,77.5823599 C84.2108676,78.8504222 81.7900213,80.9254333 80.3490414,80.9254333 L77.0059679,80.9254333 C76.4295759,80.9254333 75.9684624,80.5795982 75.9684624,80.1184846 L75.9684624,67.6107787 C75.9684624,67.1496651 76.4295759,66.7461908 77.0059679,66.7461908 L80.2914022,66.7461908 C81.7900213,66.7461908 84.2108676,68.6482843 84.2108676,70.0892642 L84.2108676,77.5823599 Z M82.0782173,70.3774602 C82.0782173,69.6857898 80.810155,68.5906451 80.0032062,68.5906451 L78.0434735,68.5906451 L78.0434735,79.0233398 L80.0032062,79.0233398 C80.7525158,79.0233398 82.0205781,77.9281951 82.0205781,77.2365247 L82.0205781,70.3774602 L82.0782173,70.3774602 Z M100.465121,68.8212019 C100.292204,68.8212019 100.176925,68.7059235 100.234565,68.5906451 L100.234565,67.4955003 C100.234565,67.3802219 100.349843,67.2649435 100.465121,67.2649435 L110.090867,67.2649435 C110.206146,67.2649435 110.321424,67.3802219 110.321424,67.4955003 L110.321424,68.5906451 C110.321424,68.7059235 110.206146,68.8212019 110.090867,68.8212019 L100.465121,68.8212019 Z M110.206146,71.5878833 C110.379063,71.5878833 110.494342,71.7031617 110.494342,71.8760793 L110.494342,72.9712241 C110.494342,73.0865025 110.379063,73.2017809 110.263785,73.2017809 L103.40472,73.2017809 L102.367215,78.9080614 L105.018618,79.5420926 C105.076257,79.5997318 105.191536,79.5997318 105.249175,79.5997318 C105.306814,79.5997318 105.422092,79.5420926 105.479731,79.5420926 L108.361691,78.792783 L108.361691,75.564988 C108.361691,75.4497096 108.47697,75.3344312 108.592248,75.3344312 L109.745032,75.3344312 C109.860311,75.3344312 109.975589,75.4497096 109.975589,75.564988 L109.975589,77.1788855 L109.975589,79.0233398 L109.975589,79.4268142 C109.975589,79.7150102 109.745032,80.0032062 109.456836,80.0608454 L105.422092,81.0407117 C105.364453,81.0407117 105.306814,81.0407117 105.249175,81.0407117 C105.191536,81.0407117 105.133896,81.0407117 105.076257,81.0407117 L101.041513,80.0608454 C100.753317,80.0032062 100.522761,79.657371 100.5804,79.3115358 L101.675544,73.1441417 L100.292204,73.1441417 C100.176925,73.1441417 100.061647,73.0288633 100.061647,72.9135849 L100.061647,71.8184401 C100.061647,71.7031617 100.176925,71.5878833 100.292204,71.5878833 L110.206146,71.5878833 Z M98.044275,71.7031617 C98.1595534,71.7031617 98.2748318,71.8184401 98.332471,71.9337185 L98.332471,72.7406673 C98.332471,72.8559457 98.2171926,72.9712241 98.1019142,72.9712241 L87.5539411,72.9712241 C87.4386627,72.9712241 87.3233843,72.8559457 87.3233843,72.7406673 L87.3233843,71.9337185 C87.3233843,71.8184401 87.4386627,71.7031617 87.5539411,71.7031617 L91.9921593,71.7031617 L91.9921593,70.8385738 L88.3032506,70.8385738 C88.1879722,70.8385738 88.0726938,70.7232954 88.0726938,70.608017 L88.0726938,69.8010682 C88.0726938,69.6857898 88.1879722,69.5705114 88.3032506,69.5705114 L91.9921593,69.5705114 L91.9921593,68.7059235 L88.0726938,68.7059235 C87.9574154,68.7059235 87.8421371,68.5906451 87.8421371,68.4753667 L87.8421371,67.6684179 C87.8421371,67.5531395 87.9574154,67.4378611 88.0726938,67.4378611 L91.9921593,67.4378611 L91.9921593,67.0343867 C91.9921593,66.9191083 92.1074377,66.8038299 92.2227161,66.8038299 L93.3755,66.8038299 C93.4907784,66.8038299 93.6060568,66.9191083 93.6060568,67.0343867 L93.6060568,67.4378611 L97.5255222,67.4378611 C97.6408006,67.4378611 97.756079,67.5531395 97.756079,67.6684179 L97.756079,68.4753667 C97.756079,68.5906451 97.6408006,68.7059235 97.5255222,68.7059235 L93.6060568,68.7059235 L93.6060568,69.5705114 L97.2949654,69.5705114 C97.4102438,69.5705114 97.5255222,69.6857898 97.5255222,69.8010682 L97.5255222,70.608017 C97.5255222,70.7232954 97.4102438,70.8385738 97.2949654,70.8385738 L93.6060568,70.8385738 L93.6060568,71.7031617 L98.044275,71.7031617 Z M96.8338519,73.9510904 C97.1796871,74.0087296 97.467883,74.2969256 97.3526046,74.5851216 L97.3526046,75.2191528 L97.3526046,80.1761238 L97.3526046,80.6372374 C97.3526046,80.7525158 97.2373263,80.8677941 97.1220479,80.8677941 L96.0269031,80.8677941 C95.9116247,80.8677941 95.7963463,80.7525158 95.7963463,80.6372374 L95.7963463,79.3115358 L89.571313,79.3115358 L89.571313,80.6372374 C89.571313,80.7525158 89.4560346,80.8677941 89.3407562,80.8677941 L88.2456114,80.8677941 C88.130333,80.8677941 88.0150546,80.7525158 88.0150546,80.6372374 L88.0150546,80.4066806 L88.0150546,75.2191528 L88.0150546,74.5851216 C88.0150546,74.2392864 88.3032506,73.9510904 88.6490858,73.9510904 C92.7414688,73.6628945 92.7414688,73.6628945 92.7414688,73.6628945 C92.7414688,73.6628945 92.799108,73.6628945 92.799108,73.6628945 L96.8338519,73.9510904 Z M95.8539855,75.2191528 L92.7414688,74.988596 C92.4532729,74.988596 90.7240969,75.1615136 89.6289522,75.2191528 L89.6289522,75.5073488 L89.6289522,75.9108232 L95.8539855,75.9108232 L95.8539855,75.5073488 L95.8539855,75.2191528 Z M89.6289522,77.9858343 L95.8539855,77.9858343 L95.8539855,77.1788855 L89.6289522,77.1788855 L89.6289522,77.9858343 Z" id="Combined-Shape" fill="#FFFFFF"></path>
            </g>
        </g>
    </g>
</svg>