<?xml version="1.0" encoding="UTF-8"?>
<svg width="15px" height="13px" viewBox="0 0 15 13" version="1.1" xmlns="http://www.w3.org/2000/svg" xmlns:xlink="http://www.w3.org/1999/xlink">
    <!-- Generator: Sketch 44.1 (41455) - http://www.bohemiancoding.com/sketch -->
    <title>twitter</title>
    <desc>Created with Sketch.</desc>
    <defs></defs>
    <g id="Page-1" stroke="none" stroke-width="1" fill="none" fill-rule="evenodd" opacity="0.340000004">
        <g id="Express-Marketing" transform="translate(-936.000000, -5288.000000)" fill-rule="nonzero" fill="#FFFFFF">
            <g id="twitter" transform="translate(936.000000, 5288.000000)">
                <path d="M4.68526459,12.0287441 C10.248027,12.0287441 13.2900854,7.42024822 13.2900854,3.4239233 C13.2900854,3.29302575 13.2874193,3.16272178 13.2815479,3.03300643 C13.8720534,2.60611907 14.3852957,2.07339776 14.790112,1.46696465 C14.2482299,1.70782643 13.6650945,1.86997061 13.0533687,1.94308389 C13.6777574,1.56867328 14.1571166,0.97640182 14.3832676,0.270347483 C13.7989451,0.616751373 13.1518523,0.868520041 12.4628632,1.00444811 C11.9109893,0.416613609 11.1252973,0.0489449885 10.255318,0.0489449885 C8.58520325,0.0489449885 7.23086896,1.40332875 7.23086896,3.07280051 C7.23086896,3.31012064 7.25740164,3.54096093 7.30928976,3.76238321 C4.79575809,3.63590778 2.56694329,2.43248431 1.07529592,0.602599618 C0.815568439,1.04952994 0.665805183,1.56868812 0.665805183,2.12263953 C0.665805183,3.17187763 1.19972353,4.09814732 2.01163161,4.64002943 C1.51545457,4.62469943 1.04935186,4.48849535 0.64196336,4.26178533 C0.64151818,4.27447393 0.64151818,4.28684447 0.64151818,4.30040562 C0.64151818,5.76504545 1.68397966,6.98790346 3.06779471,7.26500283 C2.8136666,7.33428262 2.54629192,7.37143036 2.27033023,7.37143036 C2.07575721,7.37143036 1.88618998,7.35227973 1.70193522,7.31689095 C2.08695594,8.51852875 3.203426,9.39295978 4.52709239,9.41739518 C3.4920011,10.2287097 2.188071,10.7119271 0.770916957,10.7119271 C0.527107106,10.7119271 0.286250276,10.6980592 0.049528668,10.6700634 C1.3879849,11.5279733 2.97727493,12.0285527 4.68542782,12.0285527" id="Shape"></path>
            </g>
        </g>
    </g>
</svg>