<?xml version="1.0" encoding="UTF-8"?>
<svg width="15px" height="12px" viewBox="0 0 15 12" version="1.1" xmlns="http://www.w3.org/2000/svg" xmlns:xlink="http://www.w3.org/1999/xlink">
    <!-- Generator: Sketch 44.1 (41455) - http://www.bohemiancoding.com/sketch -->
    <title>weibo</title>
    <desc>Created with Sketch.</desc>
    <defs></defs>
    <g id="Page-1" stroke="none" stroke-width="1" fill="none" fill-rule="evenodd" opacity="0.340000004">
        <g id="Express-Marketing" transform="translate(-936.000000, -5319.000000)" fill-rule="nonzero" fill="#FFFFFF">
            <g id="weibo" transform="translate(936.000000, 5319.000000)">
                <path d="M5.9259922,10.6084018 C3.59062581,10.8399923 1.57442617,9.78323901 1.42262735,8.25162789 C1.27082854,6.71807063 3.04181471,5.28960486 5.37523496,5.05801436 C7.71060134,4.82642386 9.72680099,5.88317715 9.87665366,7.41478827 C10.0303986,8.94834552 8.25941244,10.3787574 5.9259922,10.6084018 M10.5947788,5.51924922 C10.3962727,5.45891892 10.260043,5.41999615 10.3631883,5.15921357 C10.5889404,4.59288722 10.6122941,4.10440642 10.3670806,3.75410146 C9.90973802,3.10019887 8.65642473,3.13522937 7.2201744,3.73658621 C7.2201744,3.73658621 6.76867023,3.93314622 6.88543855,3.57700284 C7.10535222,2.86666224 7.07226786,2.27308995 6.72974746,1.9286234 C5.951292,1.1482218 3.87865433,1.95781548 2.10182974,3.73464007 C0.772617045,5.06385277 0,6.4748033 0,7.69503223 C0,10.0265063 2.99121511,11.4452414 5.9162615,11.4452414 C9.75210079,11.4452414 12.3034886,9.21691266 12.3034886,7.44787262 C12.3054347,6.37749636 11.4043725,5.7703011 10.5947788,5.51924922" id="Shape"></path>
                <path d="M13.1422743,1.25136715 C12.2159123,0.223805945 10.849723,-0.167367924 9.58862514,0.10119921 L9.58862514,0.10119921 C9.29670434,0.163475647 9.11182117,0.451504167 9.17409761,0.741478827 C9.23637404,1.03339962 9.52245643,1.2182828 9.81437722,1.15600636 C10.7115471,0.965284772 11.6826703,1.2435826 12.3404652,1.97338459 C12.9982601,2.70318659 13.1773048,3.69766344 12.8951147,4.56953356 L12.8951147,4.56953356 C12.8036462,4.8536698 12.9593373,5.15726743 13.2434735,5.24873595 C13.5276098,5.34020446 13.8312074,5.18451337 13.9226759,4.90232327 C13.9226759,4.90232327 13.9226759,4.90037713 13.9226759,4.90037713 C14.3196882,3.67625591 14.0686363,2.27698222 13.1422743,1.25136715" id="Shape"></path>
                <path d="M11.719647,2.53581866 C11.2681428,2.03566103 10.6025634,1.84493944 9.9895297,1.97727687 C9.73847782,2.02982261 9.57889445,2.27892836 9.63144019,2.52998025 C9.68593207,2.78103213 9.93309168,2.9406155 10.1821974,2.88612362 L10.1821974,2.88612362 C10.4819028,2.82190105 10.8088541,2.9153157 11.0287677,3.15858303 C11.2486814,3.4037965 11.3090117,3.73658621 11.2136509,4.02850701 L11.2136509,4.02850701 C11.1358054,4.27177434 11.2681428,4.53450306 11.5133563,4.61429475 C11.7585697,4.69214029 12.0193523,4.55980286 12.099144,4.31458939 C12.2918117,3.71712483 12.1711511,3.0359763 11.719647,2.53581866" id="Shape"></path>
                <path d="M6.05443735,7.83320808 C5.97269952,7.97333006 5.79170863,8.03949877 5.65158665,7.98111461 C5.51146466,7.92467659 5.46864961,7.76703936 5.5484413,7.63080966 C5.63017912,7.49457995 5.80338546,7.42841124 5.94156131,7.48290312 C6.08168329,7.53350272 6.13228289,7.69113995 6.05443735,7.83320808 M5.30906624,8.78681602 C5.08331416,9.14685167 4.59872564,9.3044889 4.23479771,9.13906711 C3.8767082,8.97559147 3.76967057,8.55717166 3.99542265,8.20492056 C4.2192286,7.8546156 4.68630188,7.69892451 5.04828366,7.85072332 C5.41415773,8.00836056 5.53092605,8.42288809 5.30906624,8.78681602 M6.1575827,6.23737438 C5.04633753,5.94739972 3.7910781,6.50204924 3.30843571,7.48095698 C2.81606263,8.47932611 3.2928666,9.58862514 4.41384246,9.95060693 C5.57763338,10.3262117 6.94771499,9.75015465 7.42451896,8.67393997 C7.89548451,7.61913282 7.30775064,6.5351336 6.1575827,6.23737438" id="Shape"></path>
            </g>
        </g>
    </g>
</svg>