<?xml version="1.0" encoding="UTF-8"?>
<svg width="60px" height="40px" viewBox="0 0 60 40" version="1.1" xmlns="http://www.w3.org/2000/svg" xmlns:xlink="http://www.w3.org/1999/xlink">
    <!-- Generator: Sketch 44.1 (41455) - http://www.bohemiancoding.com/sketch -->
    <title>x86</title>
    <desc>Created with Sketch.</desc>
    <defs>
        <linearGradient x1="100%" y1="0%" x2="0%" y2="100%" id="linearGradient-1">
            <stop stop-color="#30C476" offset="0%"></stop>
            <stop stop-color="#229C4F" offset="100%"></stop>
        </linearGradient>
        <linearGradient x1="33.6420285%" y1="100%" x2="80.576475%" y2="2.55500638%" id="linearGradient-2">
            <stop stop-color="#FFFFFF" stop-opacity="0.464192708" offset="0%"></stop>
            <stop stop-color="#FFFFFF" stop-opacity="0.05" offset="100%"></stop>
        </linearGradient>
    </defs>
    <g id="Page-1" stroke="none" stroke-width="1" fill="none" fill-rule="evenodd">
        <g id="Express-Marketing" transform="translate(-540.000000, -1529.000000)">
            <g id="x86" transform="translate(540.000000, 1529.000000)">
                <rect id="Rectangle-23-Copy-4" fill="url(#linearGradient-1)" opacity="0.900000036" x="0" y="0" width="60" height="40"></rect>
                <path d="M14.8561227,22.1855601 L10,29.3380567 L13.4198047,29.3380567 L16.4429121,24.668691 L19.4796986,29.3380567 L22.8858241,29.3380567 L18.0433807,22.1855601 L22.6943151,15.3299595 L19.2745104,15.3299595 L16.4429121,19.8643725 L13.624993,15.3299595 L10.2051883,15.3299595 L14.8561227,22.1855601 Z M27.0443066,15.1275304 C27.0625457,16.0362169 27.3589258,16.7289675 27.9334559,17.205803 C28.4988664,17.7006323 29.1509026,17.9480432 29.8895841,17.9480432 C30.6556242,17.9480432 31.3213396,17.7006323 31.8867501,17.205803 C32.4430411,16.7289675 32.7303018,16.0362169 32.7485409,15.1275304 C32.7303018,14.1918532 32.4430411,13.4856074 31.8867501,13.0087719 C31.3213396,12.5499302 30.6556242,12.3205128 29.8895841,12.3205128 C29.1509026,12.3205128 28.4988664,12.5499302 27.9334559,13.0087719 C27.3589258,13.4856074 27.0625457,14.1918532 27.0443066,15.1275304 Z M23.816011,23.5890688 C23.83425,21.6907238 24.6185174,20.2152549 26.1688366,19.1626181 C25.5760675,18.649795 25.1109787,18.0605072 24.7735563,17.3947368 C24.3814167,16.773951 24.1853499,16.0362166 24.1853499,15.1815115 C24.203589,13.5440764 24.7644313,12.1900638 25.8678938,11.1194332 C26.9075196,10.0577995 28.2480697,9.51799379 29.8895841,9.5 C31.5584572,9.51799379 32.9218057,10.0577995 33.9796706,11.1194332 C35.046655,12.1900638 35.5892586,13.5440764 35.6074976,15.1815115 C35.6074976,16.0362166 35.4296695,16.773951 35.0740081,17.3947368 C34.7001076,18.0605072 34.21678,18.649795 33.6240109,19.1626181 C35.1743301,20.2152549 35.9585975,21.6907238 35.9768365,23.5890688 C35.9585975,25.3614574 35.3703969,26.7784472 34.2122173,27.840081 C33.0357986,28.9287054 31.5949353,29.4820062 29.8895841,29.5 C28.1933525,29.4820062 26.7752877,28.9287054 25.6353471,27.840081 C24.4406893,26.7784472 23.83425,25.3614574 23.816011,23.5890688 Z M26.6749677,23.5620783 C26.6932068,24.4617679 27.0215047,25.1995023 27.6598715,25.7753036 C28.2708796,26.3780957 29.0141098,26.6794872 29.8895841,26.6794872 C30.7924171,26.6794872 31.5493263,26.3780957 32.1603345,25.7753036 C32.7804622,25.1995023 33.0996407,24.4617679 33.1178798,23.5620783 C33.0996407,22.6443949 32.7804622,21.8976637 32.1603345,21.3218623 C31.5493263,20.7550579 30.7924171,20.4626632 29.8895841,20.4446694 C29.0141098,20.4626632 28.2708796,20.7550579 27.6598715,21.3218623 C27.0215047,21.8976637 26.6932068,22.6443949 26.6749677,23.5620783 Z M37.6867389,23.8319838 L37.6867389,15.1545209 C37.7049779,13.3371479 38.2931784,11.9381516 39.4513581,10.9574899 C40.5365815,9.9858251 41.8315346,9.5 43.3362562,9.5 C44.6859459,9.5 45.8851454,9.87786397 46.9338908,10.6336032 C47.9552776,11.4073363 48.6073138,12.5184363 48.8900191,13.9669366 L45.948987,13.9669366 C45.5021303,12.887309 44.6312288,12.3385066 43.3362562,12.3205128 C41.5123513,12.3565004 40.5821737,13.3596393 40.5456956,15.3299595 L40.5456956,17.1788124 C41.9045048,16.7559583 43.1720997,16.5535312 44.3485184,16.571525 C45.66173,16.571525 46.7742953,17.0033695 47.6862478,17.8670715 C48.5799612,18.7487673 49.0176919,20.1387669 48.9994528,22.037112 L48.9994528,23.8319838 C48.9629747,25.6403599 48.393013,27.0348579 47.2895505,28.0155196 C46.204327,28.9871843 44.8865755,29.4820062 43.3362562,29.5 C41.8315346,29.4820062 40.5365815,28.9871843 39.4513581,28.0155196 C38.2931784,27.0348579 37.7049779,25.6403599 37.6867389,23.8319838 Z M40.5456956,22.0641026 L40.5456956,23.6700405 C40.5821737,25.6583545 41.5123513,26.6614934 43.3362562,26.6794872 C45.1510417,26.6614934 46.0857789,25.6583545 46.1404961,23.6700405 L46.1404961,22.0641026 C46.0857789,20.0937823 45.1510417,19.0906435 43.3362562,19.0546559 C41.5123513,19.0906435 40.5821737,20.0937823 40.5456956,22.0641026 Z" fill="url(#linearGradient-2)"></path>
            </g>
        </g>
    </g>
</svg>